<?xml version="1.0" encoding="UTF-8" standalone="no" ?>
<!DOCTYPE svg PUBLIC "-//W3C//DTD SVG 1.1//EN" "http://www.w3.org/Graphics/SVG/1.1/DTD/svg11.dtd">
<svg xmlns="http://www.w3.org/2000/svg" xmlns:xlink="http://www.w3.org/1999/xlink" version="1.1" width="1080" height="1080" viewBox="0 0 1080 1080" xml:space="preserve">
<desc>Created with Fabric.js 5.2.4</desc>
<defs>
</defs>
<g transform="matrix(1 0 0 1 540 540)" id="4d80282d-0c7c-4f27-97d5-7b383a7951cb"  >
</g>
<g transform="matrix(1 0 0 1 540 540)" id="2c371d44-25e3-4131-a224-ed8210e74302"  >
<rect style="stroke: none; stroke-width: 1; stroke-dasharray: none; stroke-linecap: butt; stroke-dashoffset: 0; stroke-linejoin: miter; stroke-miterlimit: 4; fill: rgb(255,255,255); fill-rule: nonzero; opacity: 1; visibility: hidden;" vector-effect="non-scaling-stroke"  x="-540" y="-540" rx="0" ry="0" width="1080" height="1080" />
</g>
<g transform="matrix(1 0 0 1 527.42 531.84)"  >
<path style="stroke: none; stroke-width: 1; stroke-dasharray: none; stroke-linecap: butt; stroke-dashoffset: 0; stroke-linejoin: miter; stroke-miterlimit: 4; fill: rgb(195,189,160); fill-rule: nonzero; opacity: 1;" vector-effect="non-scaling-stroke"  transform=" translate(-329.27, -69.04)" d="M 323.686 73.524 C 323.84512989390373 73.524 323.9977422416431 73.46078589578076 324.1102640687119 73.34826406871194 C 324.22278589578076 73.23574224164312 324.286 73.08312989390373 324.286 72.924 L 324.286 67.066 L 331.752 67.066 C 332.04632588406065 67.95033922223074 332.93865716740385 68.49061888179585 333.8586886913421 68.34153641816026 C 334.7787202152803 68.19245395452467 335.454775637732 67.39803196619201 335.454775637732 66.46600000000001 C 335.454775637732 65.533968033808 334.7787202152803 64.73954604547534 333.8586886913421 64.59046358183974 C 332.93865716740385 64.44138111820415 332.04632588406065 64.98166077776926 331.752 65.866 L 323.689 65.866 C 323.52987010609627 65.866 323.3772577583569 65.92921410421924 323.2647359312881 66.04173593128806 C 323.15221410421924 66.15425775835688 323.089 66.30687010609627 323.089 66.466 L 323.089 72.92399999999999 C 323.089 73.08312989390372 323.15221410421924 73.23574224164311 323.2647359312881 73.34826406871193 C 323.3772577583569 73.46078589578075 323.52987010609627 73.52399999999999 323.689 73.52399999999999 Z M 333.55199999999996 65.758 C 333.8373230873592 65.75922130932258 334.09377813405854 65.93230222693064 334.20165315629015 66.19644941195291 C 334.3095281785218 66.46059659697517 334.2475509527426 66.76372201409211 334.04465215021213 66.96432817478606 C 333.8417533476817 67.16493433548001 333.5379432376429 67.22346306394584 333.27503891998015 67.11259343090349 C 333.01213460231736 67.00172379786112 332.84197902732717 66.74331854381747 332.84399999999994 66.458 C 332.843990656226 66.2711292402302 332.91870056933135 66.09201240103266 333.0514939084077 65.96053384749176 C 333.18428724748395 65.82905529395084 333.3641385837705 65.75613129216634 333.551 65.758 Z" stroke-linecap="round" />
</g>
<g transform="matrix(1 0 0 1 517.74 528.03)"  >
<path style="stroke: none; stroke-width: 1; stroke-dasharray: none; stroke-linecap: butt; stroke-dashoffset: 0; stroke-linejoin: miter; stroke-miterlimit: 4; fill: rgb(195,189,160); fill-rule: nonzero; opacity: 1;" vector-effect="non-scaling-stroke"  transform=" translate(-277.75, -14.87)" d="M 277.151 11.3 L 277.151 21.334 C 277.15099997040556 21.54835937367452 277.2653593178783 21.746435615920184 277.4509999760873 21.853615311300622 C 277.6366406342964 21.960795006681064 277.8653593657036 21.960795006681064 278.0510000239127 21.853615311300622 C 278.23664068212173 21.746435615920184 278.35100002959445 21.54835937367452 278.351 21.334 L 278.351 11.3 C 279.17752801118775 11.007778219224253 279.6733232514441 10.162600262141785 279.5250774073763 9.298560163445915 C 279.37683156330843 8.434520064750043 278.62766534232725 7.802943725152286 277.75100000000003 7.802943725152285 C 276.87433465767276 7.802943725152284 276.1251684366916 8.434520064750043 275.97692259262374 9.298560163445913 C 275.8286767485559 10.162600262141785 276.32447198881226 11.007778219224253 277.151 11.3 Z M 277.75100000000003 9.017000000000001 C 278.05762435641924 9.047777973479748 278.2910750469337 9.305834817669131 278.2910750469337 9.614 C 278.2910750469337 9.922165182330872 278.05762435641924 10.180222026520255 277.75100000000003 10.211000000000002 L 277.75100000000003 10.211000000000002 C 277.5234221723204 10.233843535414804 277.30265229689473 10.125313271892855 277.1817510112027 9.931157731462898 C 277.0608497255107 9.737002191032941 277.0608497255107 9.490997808967064 277.1817510112027 9.296842268537107 C 277.30265229689473 9.10268672810715 277.5234221723204 8.9941564645852 277.75100000000003 9.017000000000003 Z" stroke-linecap="round" />
</g>
<g transform="matrix(1 0 0 1 511.42 527.39)"  >
<path style="stroke: none; stroke-width: 1; stroke-dasharray: none; stroke-linecap: butt; stroke-dashoffset: 0; stroke-linejoin: miter; stroke-miterlimit: 4; fill: rgb(195,189,160); fill-rule: nonzero; opacity: 1;" vector-effect="non-scaling-stroke"  transform=" translate(-211.34, -7.33)" d="M 209.548 3.744 L 209.548 6.944000000000001 C 209.5481308276342 7.207080649775343 209.7196271207645 7.439391231249714 209.971 7.517000000000001 L 213.236 8.526000000000002 L 213.236 14.026000000000002 C 213.23599997040554 14.240359373674522 213.35035931787826 14.438435615920186 213.5359999760873 14.545615311300624 C 213.72164063429636 14.652795006681064 213.9503593657036 14.652795006681064 214.13600002391266 14.545615311300626 C 214.3216406821217 14.438435615920186 214.43600002959442 14.240359373674522 214.43599999999998 14.026000000000002 L 214.43599999999998 8.084 C 214.43586917236578 7.820919350224657 214.26437287923548 7.588608768750286 214.01299999999998 7.510999999999999 L 210.747 6.5 L 210.747 3.746 C 211.6365289716026 3.4514960026588843 212.1808132290449 2.554933178029959 212.0316594579044 1.629866938063992 C 211.88250568676386 0.7048006980980253 211.08401355154035 0.024741464360007903 210.14700000000002 0.024741464360007903 C 209.2099864484597 0.024741464360007903 208.41149431323618 0.7048006980980253 208.26234054209564 1.629866938063992 C 208.11318677095514 2.554933178029959 208.65747102839745 3.451496002658884 209.54700000000003 3.7459999999999996 Z M 210.148 1.237 C 210.4344482877088 1.2378117458873308 210.69218328339667 1.411148703527735 210.80095963683243 1.6761411286947623 C 210.9097359902682 1.9411335538617895 210.84811792309102 2.245561283682213 210.64485312650413 2.447394638039632 C 210.4415883299172 2.6492279923970514 210.13673274430252 2.708693114996703 209.8725156643833 2.598046763309751 C 209.60829858446405 2.487400411622799 209.43678738136822 2.2284468711973275 209.438 1.9420000000000006 C 209.4379846575528 1.7531873252453156 209.51360075882843 1.5722359565068353 209.64795438648466 1.439573493394537 C 209.78230801414088 1.3069110302822387 209.96420266706917 1.2335930389256597 210.153 1.236 Z" stroke-linecap="round" />
</g>
<g transform="matrix(1 0 0 1 498.97 530.29)"  >
<path style="stroke: none; stroke-width: 1; stroke-dasharray: none; stroke-linecap: butt; stroke-dashoffset: 0; stroke-linejoin: miter; stroke-miterlimit: 4; fill: rgb(195,189,160); fill-rule: nonzero; opacity: 1;" vector-effect="non-scaling-stroke"  transform=" translate(-84.12, -35.97)" d="M 80.849 32.856 C 81.66797998708172 32.853804891059454 82.393394059236 32.327073673111876 82.649 31.549000000000003 L 88.1 31.549000000000003 L 88.1 42.295 C 88.1 42.62637084989848 88.36862915010151 42.895 88.69999999999999 42.895 C 89.03137084989848 42.895 89.3 42.62637084989848 89.3 42.295 L 89.3 30.949 C 89.3 30.61762915010153 89.03137084989848 30.349000000000004 88.7 30.349 L 82.648 30.349 C 82.33861436731519 29.429641140382675 81.3863669339212 28.890956992251265 80.43900091405114 29.099374378436277 C 79.49163489418106 29.307791764621285 78.85338277721576 30.196380545240764 78.95840008118131 31.16069976019837 C 79.06341738514688 32.125018975155974 79.87797936676203 32.855391868930575 80.848 32.855 Z M 80.849 30.241 C 81.23813237570445 30.241550789752488 81.55344921024752 30.556867624295542 81.554 30.945999999999998 C 81.554 30.945999999999998 81.554 30.945999999999998 81.554 30.945999999999998 L 81.554 30.945999999999998 C 81.55358072994936 31.232497385345344 81.3803020201069 31.490419008809596 81.11522266434622 31.59911060345517 C 80.85014330858554 31.70780219810074 80.54567405935025 31.64577356434826 80.34424389788708 31.442041343896953 C 80.14281373642393 31.238309123445646 80.08424887363049 30.933154683889068 80.19594561887291 30.669327534605024 C 80.30764236411532 30.40550038532098 80.56751634780224 30.235163695973696 80.854 30.238 Z" stroke-linecap="round" />
</g>
<g transform="matrix(1 0 0 1 508.15 531.78)"  >
<path style="stroke: none; stroke-width: 1; stroke-dasharray: none; stroke-linecap: butt; stroke-dashoffset: 0; stroke-linejoin: miter; stroke-miterlimit: 4; fill: rgb(195,189,160); fill-rule: nonzero; opacity: 1;" vector-effect="non-scaling-stroke"  transform=" translate(-192.48, -75.08)" d="M 191.877 74.91 L 191.877 78.155 C 191.87699997040556 78.36935937367453 191.99135931787828 78.56743561592019 192.17699997608733 78.67461531130063 C 192.36264063429638 78.78179500668107 192.59135936570362 78.78179500668107 192.77700002391268 78.67461531130063 C 192.96264068212173 78.56743561592019 193.07700002959444 78.36935937367453 193.077 78.155 L 193.077 74.91 C 193.90352801118777 74.61777821922425 194.39932325144412 73.77260026214178 194.25107740737627 72.90856016344591 C 194.10283156330846 72.04452006475005 193.35366534232725 71.41294372515227 192.477 71.41294372515227 C 191.60033465767276 71.41294372515227 190.85116843669155 72.04452006475005 190.70292259262374 72.90856016344591 C 190.5546767485559 73.77260026214178 191.05047198881223 74.61777821922425 191.877 74.91 Z M 192.477 72.625 C 192.8083708498985 72.625 193.077 72.89362915010152 193.077 73.225 C 193.077 73.55637084989849 192.8083708498985 73.825 192.477 73.825 L 192.47 73.825 C 192.1386291501015 73.825 191.87 73.55637084989849 191.87 73.225 C 191.87 72.89362915010152 192.1386291501015 72.625 192.47 72.625 Z" stroke-linecap="round" />
</g>
<g transform="matrix(1 0 0 1 499.96 565.92)"  >
<path style="stroke: none; stroke-width: 1; stroke-dasharray: none; stroke-linecap: butt; stroke-dashoffset: 0; stroke-linejoin: miter; stroke-miterlimit: 4; fill: rgb(195,189,160); fill-rule: nonzero; opacity: 1;" vector-effect="non-scaling-stroke"  transform=" translate(-85.12, -372.15)" d="M 90.706 367.664 C 90.54687010609628 367.664 90.39425775835689 367.72721410421923 90.28173593128807 367.8397359312881 C 90.16921410421925 367.9522577583569 90.10600000000001 368.10487010609626 90.10600000000001 368.264 L 90.10600000000001 374.129 L 82.64 374.129 C 82.34567411593937 373.2446607777693 81.45334283259615 372.7043811182042 80.53331130865793 372.8534635818398 C 79.6132797847197 373.00254604547536 78.937224362268 373.796968033808 78.937224362268 374.72900000000004 C 78.937224362268 375.661031966192 79.6132797847197 376.45545395452467 80.53331130865793 376.60453641816025 C 81.45334283259615 376.75361888179583 82.34567411593937 376.21333922223073 82.64 375.329 L 90.703 375.329 C 90.86212989390373 375.329 91.01474224164312 375.26578589578077 91.12726406871194 375.1532640687119 C 91.23978589578076 375.0407422416431 91.303 374.88812989390374 91.303 374.729 L 91.303 368.264 C 91.30300412756073 367.93379719625455 91.03619867621053 367.66565101399306 90.706 367.664 Z M 80.84 375.436 C 80.55467691264077 375.4347786906774 80.29822186594143 375.26169777306933 80.19034684370976 374.9975505880471 C 80.08247182147811 374.7334034030248 80.14444904725734 374.4302779859079 80.34734784978781 374.2296718252139 C 80.55024665231826 374.02906566452 80.85405676235706 373.97053693605415 81.1169610800198 374.0814065690965 C 81.37986539768256 374.1922762021389 81.55002097267274 374.4506814561825 81.548 374.736 C 81.54801221565124 374.92304598133825 81.47316526853916 375.1023169106265 81.34015444774619 375.23382478429187 C 81.20714362695323 375.3653326579572 81.02703376608589 375.43813766876156 80.84 375.436 Z" stroke-linecap="round" />
</g>
<g transform="matrix(1 0 0 1 509.66 569.74)"  >
<path style="stroke: none; stroke-width: 1; stroke-dasharray: none; stroke-linecap: butt; stroke-dashoffset: 0; stroke-linejoin: miter; stroke-miterlimit: 4; fill: rgb(195,189,160); fill-rule: nonzero; opacity: 1;" vector-effect="non-scaling-stroke"  transform=" translate(-205.9, -385.67)" d="M 206.5 389.237 L 206.5 379.2 C 206.50000002959445 378.98564062632545 206.38564068212173 378.7875643840798 206.20000002391268 378.68038468869935 C 206.01435936570363 378.57320499331894 205.78564063429639 378.57320499331894 205.59999997608733 378.68038468869935 C 205.41435931787828 378.7875643840798 205.29999997040557 378.98564062632545 205.3 379.2 L 205.3 389.241 C 204.47347198881224 389.53322178077576 203.9776767485559 390.3783997378582 204.12592259262374 391.24243983655407 C 204.27416843669155 392.1064799352499 205.02333465767276 392.7380562748477 205.9 392.7380562748477 C 206.77666534232725 392.7380562748477 207.52583156330846 392.1064799352499 207.67407740737627 391.24243983655407 C 207.82232325144412 390.3783997378582 207.32652801118778 389.5332217807757 206.5 389.241 Z M 205.9 391.52000000000004 C 205.59337564358074 391.48922202652034 205.35992495306624 391.2311651823309 205.35992495306624 390.923 C 205.35992495306624 390.61483481766913 205.59337564358074 390.3567779734797 205.9 390.326 L 205.9 390.326 C 206.12757782767963 390.30315646458524 206.34834770310528 390.4116867281072 206.46924898879726 390.6058422685372 C 206.59015027448922 390.7999978089671 206.59015027448922 391.046002191033 206.46924898879726 391.2401577314629 C 206.34834770310528 391.43431327189285 206.12757782767963 391.5428435354148 205.9 391.52000000000004 Z" stroke-linecap="round" />
</g>
<g transform="matrix(1 0 0 1 515.97 570.37)"  >
<path style="stroke: none; stroke-width: 1; stroke-dasharray: none; stroke-linecap: butt; stroke-dashoffset: 0; stroke-linejoin: miter; stroke-miterlimit: 4; fill: rgb(195,189,160); fill-rule: nonzero; opacity: 1;" vector-effect="non-scaling-stroke"  transform=" translate(-251.79, -389.52)" d="M 253.583 393.1 L 253.583 389.90000000000003 C 253.5828691723658 389.6369193502247 253.4113728792355 389.40460876875034 253.16 389.32700000000006 L 249.895 388.31800000000004 L 249.895 382.81800000000004 C 249.89499995425098 382.486629182451 249.62637081754903 382.218000082836 249.29500000000002 382.218000082836 C 248.963629182451 382.218000082836 248.69500004574905 382.486629182451 248.69500000000002 382.81800000000004 L 248.69500000000002 388.761 C 248.69513082763422 389.0240806497754 248.86662712076452 389.2563912312497 249.11800000000002 389.334 L 252.383 390.343 L 252.383 393.1 C 251.49404756537658 393.39448429325 250.9502082711988 394.2905770407458 251.09935415006458 395.215083902165 C 251.24850002893035 396.1395907635843 252.046539947465 396.8192051236677 252.983 396.8192051236677 C 253.91946005253502 396.8192051236677 254.71749997106966 396.1395907635843 254.86664584993542 395.215083902165 C 255.01579172880122 394.2905770407458 254.47195243462343 393.39448429325 253.583 393.1 Z M 252.978 395.607 C 252.69155171229121 395.6061882541127 252.43381671660333 395.4328512964723 252.32504036316757 395.16785887130527 C 252.21626400973182 394.9028664461382 252.27788207690898 394.5984387163178 252.48114687349587 394.3966053619604 C 252.6844116700828 394.194772007603 252.98926725569748 394.13530688500333 253.25348433561672 394.2459532366903 C 253.51770141553598 394.35659958837726 253.68921261863179 394.61555312880273 253.68800000000002 394.90200000000004 C 253.68880630179925 395.09063180263286 253.61409199727683 395.27174171771134 253.48052021959853 395.40493776605723 C 253.34694844192023 395.53813381440307 253.16562878297572 395.61233765473673 252.977 395.611 Z" stroke-linecap="round" />
</g>
<g transform="matrix(1 0 0 1 528.42 567.48)"  >
<path style="stroke: none; stroke-width: 1; stroke-dasharray: none; stroke-linecap: butt; stroke-dashoffset: 0; stroke-linejoin: miter; stroke-miterlimit: 4; fill: rgb(195,189,160); fill-rule: nonzero; opacity: 1;" vector-effect="non-scaling-stroke"  transform=" translate(-346.07, -366.74)" d="M 349.349 369.857 C 348.53002001291827 369.8591951089406 347.80460594076396 370.3859263268882 347.549 371.16400000000004 L 342.09099999999995 371.16400000000004 L 342.09099999999995 360.42400000000004 C 342.0910000295944 360.2096406263255 341.9766406821217 360.01156438407986 341.79100002391266 359.9043846886994 C 341.6053593657036 359.797204993319 341.37664063429634 359.797204993319 341.19099997608726 359.9043846886994 C 341.00535931787823 360.01156438407986 340.8909999704055 360.2096406263255 340.89099999999996 360.42400000000004 L 340.89099999999996 371.76300000000003 C 340.89099999999996 371.9221298939038 340.9542141042192 372.07474224164315 341.066735931288 372.187264068712 C 341.17925775835687 372.2997858957808 341.33187010609623 372.36300000000006 341.491 372.36300000000006 L 347.54699999999997 372.36300000000006 C 347.85638563268475 373.2823588596174 348.80863306607876 373.8210430077488 349.7559990859488 373.61262562156384 C 350.7033651058189 373.4042082353788 351.3416172227842 372.51561945475936 351.2365999188187 371.5513002398017 C 351.13158261485313 370.58698102484414 350.317020633238 369.8566081310695 349.347 369.8570000000001 Z M 349.349 372.47200000000004 C 348.95986762429555 372.47144921024756 348.6445507897525 372.1561323757045 348.644 371.76700000000005 C 348.644 371.76700000000005 348.644 371.76700000000005 348.644 371.76700000000005 L 348.644 371.76700000000005 C 348.64441927005066 371.4805026146547 348.8176979798931 371.22258099119045 349.0827773356538 371.1138893965449 C 349.3478566914145 371.0051978018993 349.6523259406498 371.06722643565183 349.8537561021129 371.2709586561031 C 350.0551862635761 371.47469087655446 350.1137511263695 371.77984531611105 350.0020543811271 372.04367246539505 C 349.8903576358847 372.3074996146791 349.63048365219777 372.47783630402637 349.344 372.4750000000001 Z" stroke-linecap="round" />
</g>
<g transform="matrix(1 0 0 1 519.24 565.98)"  >
<path style="stroke: none; stroke-width: 1; stroke-dasharray: none; stroke-linecap: butt; stroke-dashoffset: 0; stroke-linejoin: miter; stroke-miterlimit: 4; fill: rgb(195,189,160); fill-rule: nonzero; opacity: 1;" vector-effect="non-scaling-stroke"  transform=" translate(-291.15, -379.12)" d="M 291.755 379.287 L 291.755 376.04699999999997 C 291.75500002959444 375.83264062632543 291.6406406821217 375.6345643840798 291.4550000239127 375.5273846886993 C 291.2693593657036 375.4202049933189 291.0406406342964 375.4202049933189 290.8549999760873 375.5273846886993 C 290.6693593178783 375.6345643840798 290.55499997040556 375.83264062632543 290.555 376.04699999999997 L 290.555 379.287 C 289.72847198881226 379.57922178077575 289.2326767485559 380.4243997378582 289.38092259262373 381.28843983655406 C 289.5291684366916 382.1524799352499 290.27833465767276 382.78405627484767 291.15500000000003 382.78405627484767 C 292.03166534232724 382.78405627484767 292.7808315633084 382.1524799352499 292.92907740737627 381.28843983655406 C 293.0773232514441 380.4243997378582 292.58152801118774 379.5792217807757 291.755 379.287 Z M 291.155 381.572 C 290.82362918245093 381.571999954251 290.55500008283593 381.303370817549 290.55500008283593 380.972 C 290.55500008283593 380.640629182451 290.82362918245093 380.372000045749 291.155 380.372 L 291.162 380.372 C 291.3763593736745 380.37199997040557 291.57443561592015 380.4863593178783 291.6816153113006 380.6719999760873 C 291.788795006681 380.8576406342964 291.788795006681 381.08635936570363 291.6816153113006 381.2720000239127 C 291.57443561592015 381.45764068212173 291.3763593736745 381.57200002959445 291.162 381.572 Z" stroke-linecap="round" />
</g>
<g transform="matrix(1 0 0 1 513.69 548.88)"  >
<path style="stroke: none; stroke-width: 1; stroke-dasharray: none; stroke-linecap: butt; stroke-dashoffset: 0; stroke-linejoin: miter; stroke-miterlimit: 4; fill: rgb(195,189,160); fill-rule: nonzero; opacity: 1;" vector-effect="non-scaling-stroke"  transform=" translate(-81.86, -153.39)" d="M 103.8 153.023 C 103.39999999999999 152.507 93.875 140.39 81.871 140.39 C 69.86699999999999 140.39 60.32599999999999 152.50699999999998 59.925999999999995 153.023 C 59.75837647015048 153.23932893085794 59.75837647015048 153.54167106914207 59.925999999999995 153.758 C 60.32599999999999 154.274 69.859 166.39100000000002 81.871 166.39100000000002 C 93.883 166.39100000000002 103.4 154.273 103.8 153.757 C 103.96710752185787 153.54086697488117 103.96710752185787 153.23913302511883 103.8 153.023 Z M 81.876 165.191 C 71.595 165.191 62.881 155.424 61.176 153.391 C 62.876000000000005 151.356 71.59100000000001 141.59099999999998 81.876 141.59099999999998 C 92.161 141.59099999999998 100.85600000000001 151.35899999999998 102.557 153.391 C 100.857 155.424 92.16 165.191 81.876 165.191 Z" stroke-linecap="round" />
</g>
<g transform="matrix(1 0 0 1 513.7 548.88)"  >
<path style="stroke: none; stroke-width: 1; stroke-dasharray: none; stroke-linecap: butt; stroke-dashoffset: 0; stroke-linejoin: miter; stroke-miterlimit: 4; fill: rgb(195,189,160); fill-rule: nonzero; opacity: 1;" vector-effect="non-scaling-stroke"  transform=" translate(-186.26, -186.24)" d="M 186.257 177.4 C 182.68236268037109 177.4 179.45970717060118 179.5533095690012 178.09175269166525 182.85584382475736 C 176.72379821272932 186.1583780805135 177.4799399788812 189.9597594431346 180.0075902678733 192.4874097321267 C 182.5352405568654 195.01506002111884 186.3366219194865 195.77120178727068 189.63915617524268 194.40324730833476 C 192.94169043099885 193.0352928293988 195.095 189.81263731962892 195.095 186.238 C 195.08948908531897 181.35919189983312 191.13580810016688 177.40551091468103 186.257 177.4 Z M 186.257 193.877 C 182.03809679604257 193.877 178.61800000000002 190.45690320395744 178.61800000000002 186.238 C 178.61800000000002 182.0190967960426 182.0380967960426 178.59900000000002 186.257 178.59900000000002 C 190.47590320395744 178.59900000000002 193.89600000000002 182.01909679604256 193.89600000000002 186.238 C 193.8943471384742 190.45702789257575 190.47602590791166 193.87758653721772 186.257 193.882 Z" stroke-linecap="round" />
</g>
<g transform="matrix(1 0 0 1 513.7 548.89)"  >
<path style="stroke: none; stroke-width: 1; stroke-dasharray: none; stroke-linecap: butt; stroke-dashoffset: 0; stroke-linejoin: miter; stroke-miterlimit: 4; fill: rgb(195,189,160); fill-rule: nonzero; opacity: 1;" vector-effect="non-scaling-stroke"  transform=" translate(-227.07, -227.07)" d="M 227.073 223.4 C 225.0484542984142 223.4000000753204 223.40718418440176 225.0411210643672 223.40700015153445 227.06566675758862 C 223.40681611866714 229.09021245081004 225.04778784706536 230.73163179833767 227.07233351518 230.7319999393912 C 229.09687918329462 230.7323680804447 230.73844775076336 229.0915456262654 230.739 227.067 C 230.7367965630471 225.04307553360408 229.0969237901545 223.4027554413517 227.073 223.4 Z M 227.073 229.534 C 225.71051352216745 229.534 224.60600000000002 228.42948647783254 224.60600000000002 227.06699999999998 C 224.60600000000002 225.70451352216742 225.71051352216745 224.6 227.073 224.6 C 228.43548647783257 224.6 229.54000000000002 225.70451352216742 229.54000000000002 227.06699999999998 C 229.5355966047653 228.42684816531502 228.4328543003444 229.5273554833062 227.073 229.529 Z" stroke-linecap="round" />
</g>
</svg>