<svg xmlns="http://www.w3.org/2000/svg" xmlns:xlink="http://www.w3.org/1999/xlink" width="268.352" height="176.365" viewBox="0 0 268.352 176.365">
  <defs>
    <clipPath id="clip-path">
      <rect id="Rectangle_4658" data-name="Rectangle 4658" width="268.352" height="176.365" transform="translate(127.596 626.745)" fill="none"/>
    </clipPath>
  </defs>
  <g id="Pattern" transform="translate(-127.596 -626.745)" opacity="0.472" clip-path="url(#clip-path)">
    <rect id="Rectangle_4537" data-name="Rectangle 4537" width="426.329" height="19.619" transform="translate(126.738 780.399)" fill="none" stroke="#b8b294" stroke-width="0.418"/>
    <rect id="Rectangle_4538" data-name="Rectangle 4538" width="15.287" height="53.863" transform="translate(500.288 728.93)" fill="none" stroke="#b8b294" stroke-width="0.418"/>
    <rect id="Rectangle_4539" data-name="Rectangle 4539" width="5.159" height="10.506" transform="translate(503.575 719.059)" fill="none" stroke="#b8b294" stroke-width="0.418"/>
    <rect id="Rectangle_4540" data-name="Rectangle 4540" width="10.433" height="37.922" transform="translate(476.838 743.69)" fill="none" stroke="#b8b294" stroke-width="0.418"/>
    <rect id="Rectangle_4541" data-name="Rectangle 4541" width="13.61" height="45.528" transform="translate(537.064 740.265)" fill="none" stroke="#b8b294" stroke-width="0.418"/>
    <rect id="Rectangle_4542" data-name="Rectangle 4542" width="2.558" height="7.353" transform="translate(541.312 736.375)" fill="none" stroke="#b8b294" stroke-width="0.418"/>
    <rect id="Rectangle_4543" data-name="Rectangle 4543" width="8.306" height="28.577" transform="translate(221.511 731.332)" fill="none" stroke="#b8b294" stroke-width="0.418"/>
    <rect id="Rectangle_4544" data-name="Rectangle 4544" width="8.059" height="38.931" transform="translate(140.791 735.998)" fill="none" stroke="#b8b294" stroke-width="0.418"/>
    <rect id="Rectangle_4545" data-name="Rectangle 4545" width="8.985" height="22.633" transform="translate(151.721 749.714)" fill="none" stroke="#b8b294" stroke-width="0.418"/>
    <rect id="Rectangle_4546" data-name="Rectangle 4546" width="21.86" height="24.177" transform="translate(140.791 762.84)" fill="none" stroke="#b8b294" stroke-width="0.418"/>
    <rect id="Rectangle_4547" data-name="Rectangle 4547" width="13.639" height="40.363" transform="translate(132.731 746.07)" fill="none" stroke="#b8b294" stroke-width="0.418"/>
    <rect id="Rectangle_4548" data-name="Rectangle 4548" width="2.48" height="16.34" transform="translate(137.071 735.998)" fill="none" stroke="#b8b294" stroke-width="0.418"/>
    <rect id="Rectangle_4549" data-name="Rectangle 4549" width="18.024" height="13.619" transform="translate(176.796 770.885)" fill="none" stroke="#b8b294" stroke-width="0.418"/>
    <rect id="Rectangle_4550" data-name="Rectangle 4550" width="16.613" height="29.426" transform="translate(213.205 754.017)" fill="none" stroke="#b8b294" stroke-width="0.418"/>
    <rect id="Rectangle_4551" data-name="Rectangle 4551" width="6.052" height="17.208" transform="translate(185.808 758.634)" fill="none" stroke="#b8b294" stroke-width="0.418"/>
    <rect id="Rectangle_4552" data-name="Rectangle 4552" width="55.564" height="27.188" transform="translate(261.357 754.795)" fill="none" stroke="#b8b294" stroke-width="0.418"/>
    <rect id="Rectangle_4553" data-name="Rectangle 4553" width="8.062" height="18.075" transform="translate(269.123 740.559)" fill="none" stroke="#b8b294" stroke-width="0.418"/>
    <rect id="Rectangle_4554" data-name="Rectangle 4554" width="15.135" height="16.077" transform="translate(333.599 772.984)" fill="none" stroke="#b8b294" stroke-width="0.418"/>
    <rect id="Rectangle_4555" data-name="Rectangle 4555" width="15.37" height="29.538" transform="translate(366.429 747.882)" fill="none" stroke="#b8b294" stroke-width="0.418"/>
    <rect id="Rectangle_4556" data-name="Rectangle 4556" width="3.317" height="13.763" transform="translate(370.798 737.885)" fill="none" stroke="#b8b294" stroke-width="0.418"/>
    <rect id="Rectangle_4557" data-name="Rectangle 4557" width="13.357" height="34.313" transform="translate(424.816 747.882)" fill="none" stroke="#b8b294" stroke-width="0.418"/>
    <rect id="Rectangle_4558" data-name="Rectangle 4558" width="16.378" height="52.542" transform="translate(453.807 727.112)" fill="none" stroke="#b8b294" stroke-width="0.418"/>
    <rect id="Rectangle_4559" data-name="Rectangle 4559" width="13.91" height="36.651" transform="translate(479.1 745.403)" fill="none" stroke="#b8b294" stroke-width="0.418"/>
    <rect id="Rectangle_4560" data-name="Rectangle 4560" width="13.7" height="45.494" transform="translate(498.388 755.256)" fill="none" stroke="#b8b294" stroke-width="0.418"/>
    <rect id="Rectangle_4561" data-name="Rectangle 4561" width="13.776" height="30.852" transform="translate(531.231 757.192)" fill="none" stroke="#b8b294" stroke-width="0.418"/>
    <rect id="Rectangle_4562" data-name="Rectangle 4562" width="27.947" height="7.002" transform="translate(148.851 783.851)" fill="none" stroke="#b8b294" stroke-width="0.418"/>
    <rect id="Rectangle_4563" data-name="Rectangle 4563" width="31.075" height="7.973" transform="translate(129.631 797.55)" fill="none" stroke="#b8b294" stroke-width="0.418"/>
    <rect id="Rectangle_4564" data-name="Rectangle 4564" width="14.829" height="11.27" transform="translate(206.682 788.749)" fill="none" stroke="#b8b294" stroke-width="0.418"/>
    <rect id="Rectangle_4565" data-name="Rectangle 4565" width="7.067" height="4.181" transform="translate(178.741 795.086)" fill="none" stroke="#b8b294" stroke-width="0.418"/>
    <rect id="Rectangle_4566" data-name="Rectangle 4566" width="40.122" height="13.632" transform="translate(428.545 793.29)" fill="none" stroke="#b8b294" stroke-width="0.418"/>
    <rect id="Rectangle_4567" data-name="Rectangle 4567" width="6.068" height="13.632" transform="translate(428.545 793.29)" fill="none" stroke="#b8b294" stroke-width="0.418"/>
    <rect id="Rectangle_4568" data-name="Rectangle 4568" width="44.63" height="13.403" transform="translate(302.674 796.943)" fill="none" stroke="#b8b294" stroke-width="0.418"/>
    <path id="Path_6586" data-name="Path 6586" d="M457.9,819.654l-95.888-17.809-4.979.418c.985.009,41.837,12.982,55.693,17.391Z" fill="none" stroke="#b8b294" stroke-width="0.418"/>
    <path id="Path_6587" data-name="Path 6587" d="M168.7,819.658h53.884c-47.041-4.533-3.218-16.01-3.218-16.01-48.689,7.033-54.555,12.564-50.668,16.01" fill="none" stroke="#b8b294" stroke-width="0.418"/>
    <path id="Path_6588" data-name="Path 6588" d="M493.643,819.654,550.674,791.4h-1.615c-.456.241-49.224,20.018-69.48,28.254Z" fill="none" stroke="#b8b294" stroke-width="0.418"/>
    <rect id="Rectangle_4569" data-name="Rectangle 4569" width="10.433" height="2.001" transform="translate(474.611 798.75)" fill="none" stroke="#b8b294" stroke-width="0.418"/>
    <rect id="Rectangle_4570" data-name="Rectangle 4570" width="2.972" height="2.372" transform="translate(490.988 797.378)" fill="none" stroke="#b8b294" stroke-width="0.418"/>
    <rect id="Rectangle_4571" data-name="Rectangle 4571" width="14.879" height="3.91" transform="translate(537.064 786.03)" fill="none" stroke="#b8b294" stroke-width="0.418"/>
    <rect id="Rectangle_4572" data-name="Rectangle 4572" width="19.068" height="7.361" transform="translate(269.123 802.986)" fill="none" stroke="#b8b294" stroke-width="0.418"/>
    <rect id="Rectangle_4573" data-name="Rectangle 4573" width="9.919" height="8.456" transform="translate(234.702 801.89)" fill="none" stroke="#b8b294" stroke-width="0.418"/>
    <rect id="Rectangle_4574" data-name="Rectangle 4574" width="13.658" height="4.525" transform="translate(404.458 798.461)" fill="none" stroke="#b8b294" stroke-width="0.418"/>
    <rect id="Rectangle_4575" data-name="Rectangle 4575" width="5.35" height="5.35" transform="translate(146.371 813.642)" fill="none" stroke="#b8b294" stroke-width="0.418"/>
    <rect id="Rectangle_4576" data-name="Rectangle 4576" width="4.378" height="4.91" transform="translate(140.791 780.348)" fill="none" stroke="#b8b294" stroke-width="0.418"/>
    <rect id="Rectangle_4577" data-name="Rectangle 4577" width="6.384" height="8.49" transform="translate(538.119 802.986)" fill="none" stroke="#b8b294" stroke-width="0.418"/>
    <rect id="Rectangle_4578" data-name="Rectangle 4578" width="35.039" height="5.971" transform="translate(486.055 810.346)" fill="none" stroke="#b8b294" stroke-width="0.418"/>
    <rect id="Rectangle_4579" data-name="Rectangle 4579" width="35.988" height="9.058" transform="translate(322.427 804.273)" fill="none" stroke="#b8b294" stroke-width="0.418"/>
    <rect id="Rectangle_4580" data-name="Rectangle 4580" width="4.669" height="2.985" transform="translate(216.842 810.346)" fill="none" stroke="#b8b294" stroke-width="0.418"/>
    <rect id="Rectangle_4581" data-name="Rectangle 4581" width="24.505" height="3.424" transform="translate(476.128 806.922)" fill="none" stroke="#b8b294" stroke-width="0.418"/>
    <rect id="Rectangle_4582" data-name="Rectangle 4582" width="13.61" height="6.874" transform="translate(537.064 793.85)" fill="none" stroke="#b8b294" stroke-width="0.418"/>
    <rect id="Rectangle_4583" data-name="Rectangle 4583" width="9.239" height="12.573" transform="translate(199.842 783.664)" fill="none" stroke="#b8b294" stroke-width="0.418"/>
    <rect id="Rectangle_4584" data-name="Rectangle 4584" width="7.959" height="15.682" transform="translate(186.204 788.169)" fill="none" stroke="#b8b294" stroke-width="0.418"/>
    <path id="Path_6589" data-name="Path 6589" d="M204.462,784.274Z" fill="none" stroke="#b8b294" stroke-width="0.418"/>
    <rect id="Rectangle_4585" data-name="Rectangle 4585" width="8.535" height="7.47" transform="translate(211.414 789.073)" fill="none" stroke="#b8b294" stroke-width="0.418"/>
    <rect id="Rectangle_4586" data-name="Rectangle 4586" width="14.239" height="9.892" transform="translate(252.35 785.012)" fill="none" stroke="#b8b294" stroke-width="0.418"/>
    <rect id="Rectangle_4587" data-name="Rectangle 4587" width="16.438" height="17.141" transform="translate(272.164 781.684)" fill="none" stroke="#b8b294" stroke-width="0.418"/>
    <rect id="Rectangle_4588" data-name="Rectangle 4588" width="17.375" height="7.872" transform="translate(303.141 789.073)" fill="none" stroke="#b8b294" stroke-width="0.418"/>
    <rect id="Rectangle_4589" data-name="Rectangle 4589" width="15.717" height="47.491" transform="translate(383.726 753.591)" fill="none" stroke="#b8b294" stroke-width="0.418"/>
    <rect id="Rectangle_4590" data-name="Rectangle 4590" width="3.838" height="9.598" transform="translate(393.694 746.926)" fill="none" stroke="#b8b294" stroke-width="0.418"/>
    <rect id="Rectangle_4591" data-name="Rectangle 4591" width="10.17" height="22.409" transform="translate(401.774 761.061)" fill="none" stroke="#b8b294" stroke-width="0.418"/>
    <rect id="Rectangle_4592" data-name="Rectangle 4592" width="23.812" height="15.744" transform="translate(460.358 779.16)" fill="none" stroke="#b8b294" stroke-width="0.418"/>
    <rect id="Rectangle_4593" data-name="Rectangle 4593" width="37.965" height="9.587" transform="translate(478.027 792.81)" fill="none" stroke="#b8b294" stroke-width="0.418"/>
    <rect id="Rectangle_4594" data-name="Rectangle 4594" width="8.679" height="17.322" transform="translate(491.609 778.271)" fill="none" stroke="#b8b294" stroke-width="0.418"/>
    <rect id="Rectangle_4595" data-name="Rectangle 4595" width="1.061" height="7.413" transform="translate(495.948 773.128)" fill="none" stroke="#b8b294" stroke-width="0.418"/>
    <rect id="Rectangle_4596" data-name="Rectangle 4596" width="31.408" height="11.321" transform="translate(168.434 797.347)" fill="none" stroke="#b8b294" stroke-width="0.418"/>
    <rect id="Rectangle_4597" data-name="Rectangle 4597" width="3.373" height="7.381" transform="translate(175.873 790.718)" fill="none" stroke="#b8b294" stroke-width="0.418"/>
    <rect id="Rectangle_4598" data-name="Rectangle 4598" width="16.706" height="7.365" transform="translate(418.315 801.304)" fill="none" stroke="#b8b294" stroke-width="0.418"/>
    <rect id="Rectangle_4599" data-name="Rectangle 4599" width="21.681" height="14.038" transform="translate(438.677 801.353)" fill="none" stroke="#b8b294" stroke-width="0.418"/>
    <rect id="Rectangle_4600" data-name="Rectangle 4600" width="64.613" height="8.257" transform="translate(219.949 810.981)" fill="none" stroke="#b8b294" stroke-width="0.418"/>
    <path id="Path_6590" data-name="Path 6590" d="M441.348,819.238h36.679l-91.194-15.384-11.246,1.106.554.973Z" fill="none" stroke="#b8b294" stroke-width="0.418"/>
    <rect id="Rectangle_4601" data-name="Rectangle 4601" width="42.924" height="6.717" transform="translate(301.189 802.4)" fill="none" stroke="#b8b294" stroke-width="0.418"/>
    <rect id="Rectangle_4602" data-name="Rectangle 4602" width="5.472" height="3.589" transform="translate(351.477 805.079)" fill="none" stroke="#b8b294" stroke-width="0.418"/>
    <rect id="Rectangle_4603" data-name="Rectangle 4603" width="11.83" height="7.693" transform="translate(254.759 811.545)" fill="none" stroke="#b8b294" stroke-width="0.418"/>
    <rect id="Rectangle_4604" data-name="Rectangle 4604" width="37.656" height="17.682" transform="translate(451.054 787.398)" fill="none" stroke="#b8b294" stroke-width="0.418"/>
    <path id="Path_6591" data-name="Path 6591" d="M274.677,759.761v-1.873h-1.505V755.8H272.5a2.059,2.059,0,0,0,.14-.74,3.07,3.07,0,0,0-6.016,0,2.038,2.038,0,0,0,.14.74H266.1v2.09h-1.505v1.873h-.954V799.42h11.984V759.761Z" fill="none" stroke="#b8b294" stroke-width="0.418"/>
    <rect id="Rectangle_4605" data-name="Rectangle 4605" width="26.99" height="52.105" transform="translate(427.161 750.291)" fill="none" stroke="#b8b294" stroke-width="0.418"/>
    <path id="Path_6592" data-name="Path 6592" d="M433.86,749.775V739.487l12.162-3.776,6.58,7.48s-6.671,27.13-18.743,6.583" fill="none" stroke="#b8b294" stroke-width="0.418"/>
    <rect id="Rectangle_4606" data-name="Rectangle 4606" width="4.988" height="13.322" transform="translate(441.988 732.481)" fill="none" stroke="#b8b294" stroke-width="0.418"/>
    <rect id="Rectangle_4607" data-name="Rectangle 4607" width="16.602" height="61.347" transform="translate(430.376 741.56)" fill="none" stroke="#b8b294" stroke-width="0.418"/>
    <rect id="Rectangle_4608" data-name="Rectangle 4608" width="10.271" height="63.928" transform="translate(446.977 738.979)" fill="none" stroke="#b8b294" stroke-width="0.418"/>
    <path id="Path_6593" data-name="Path 6593" d="M443.936,736.863h-.251l-.974,4.7h2.2Z" fill="none" stroke="#b8b294" stroke-width="0.418"/>
    <path id="Path_6594" data-name="Path 6594" d="M442.376,743.191h2.872l-.167-.8h-2.539Z" fill="none" stroke="#b8b294" stroke-width="0.418"/>
    <path id="Path_6595" data-name="Path 6595" d="M441.989,745.059h3.646l-.167-.8h-3.313Z" fill="none" stroke="#b8b294" stroke-width="0.418"/>
    <path id="Path_6596" data-name="Path 6596" d="M441.6,746.926h4.42l-.167-.8H441.77Z" fill="none" stroke="#b8b294" stroke-width="0.418"/>
    <path id="Path_6597" data-name="Path 6597" d="M441.215,748.793h5.2l-.167-.8h-4.862Z" fill="none" stroke="#b8b294" stroke-width="0.418"/>
    <path id="Path_6598" data-name="Path 6598" d="M440.827,750.658H446.8l-.167-.8h-5.636Z" fill="none" stroke="#b8b294" stroke-width="0.418"/>
    <path id="Path_6599" data-name="Path 6599" d="M440.441,752.528h6.743l-.167-.8h-6.41Z" fill="none" stroke="#b8b294" stroke-width="0.418"/>
    <path id="Path_6600" data-name="Path 6600" d="M440.053,754.4h7.517l-.167-.8h-7.187Z" fill="none" stroke="#b8b294" stroke-width="0.418"/>
    <path id="Path_6601" data-name="Path 6601" d="M439.666,756.263h8.292l-.168-.8h-7.958Z" fill="none" stroke="#b8b294" stroke-width="0.418"/>
    <path id="Path_6602" data-name="Path 6602" d="M439.279,758.131h9.065l-.167-.8h-8.732Z" fill="none" stroke="#b8b294" stroke-width="0.418"/>
    <path id="Path_6603" data-name="Path 6603" d="M438.891,760h9.84l-.167-.8h-9.507Z" fill="none" stroke="#b8b294" stroke-width="0.418"/>
    <path id="Path_6604" data-name="Path 6604" d="M438.505,761.866h10.614l-.167-.8H438.668Z" fill="none" stroke="#b8b294" stroke-width="0.418"/>
    <path id="Path_6605" data-name="Path 6605" d="M438.117,763.733h11.389l-.168-.8H438.283Z" fill="none" stroke="#b8b294" stroke-width="0.418"/>
    <path id="Path_6606" data-name="Path 6606" d="M437.731,765.6h12.162l-.167-.8H437.9Z" fill="none" stroke="#b8b294" stroke-width="0.418"/>
    <path id="Path_6607" data-name="Path 6607" d="M437.344,767.468h12.937l-.167-.8h-12.6Z" fill="none" stroke="#b8b294" stroke-width="0.418"/>
    <path id="Path_6608" data-name="Path 6608" d="M436.957,769.335h13.712l-.167-.8H437.124Z" fill="none" stroke="#b8b294" stroke-width="0.418"/>
    <path id="Path_6609" data-name="Path 6609" d="M436.57,771.2h14.485l-.168-.8H436.736Z" fill="none" stroke="#b8b294" stroke-width="0.418"/>
    <path id="Path_6610" data-name="Path 6610" d="M436.182,773.07h15.259l-.167-.8H436.348Z" fill="none" stroke="#b8b294" stroke-width="0.418"/>
    <path id="Path_6611" data-name="Path 6611" d="M435.8,774.938h16.034l-.167-.8h-15.7Z" fill="none" stroke="#b8b294" stroke-width="0.418"/>
    <path id="Path_6612" data-name="Path 6612" d="M435.408,776.806h16.806l-.168-.8H435.575Z" fill="none" stroke="#b8b294" stroke-width="0.418"/>
    <path id="Path_6613" data-name="Path 6613" d="M435.021,778.673H452.6l-.168-.8H435.187Z" fill="none" stroke="#b8b294" stroke-width="0.418"/>
    <path id="Path_6614" data-name="Path 6614" d="M434.634,780.537H452.99l-.167-.8H434.8Z" fill="none" stroke="#b8b294" stroke-width="0.418"/>
    <path id="Path_6615" data-name="Path 6615" d="M434.247,782.408h19.13l-.167-.8h-18.8Z" fill="none" stroke="#b8b294" stroke-width="0.418"/>
    <path id="Path_6616" data-name="Path 6616" d="M433.86,784.276h19.9l-.167-.8H434.026Z" fill="none" stroke="#b8b294" stroke-width="0.418"/>
    <path id="Path_6617" data-name="Path 6617" d="M433.473,786.143h20.679l-.168-.8H433.639Z" fill="none" stroke="#b8b294" stroke-width="0.418"/>
    <path id="Path_6618" data-name="Path 6618" d="M433.086,788.01h21.453l-.167-.8h-21.12Z" fill="none" stroke="#b8b294" stroke-width="0.418"/>
    <path id="Path_6619" data-name="Path 6619" d="M432.7,789.878h22.23l-.167-.8H432.868Z" fill="none" stroke="#b8b294" stroke-width="0.418"/>
    <path id="Path_6620" data-name="Path 6620" d="M432.311,791.745h23l-.167-.8H432.477Z" fill="none" stroke="#b8b294" stroke-width="0.418"/>
    <path id="Path_6621" data-name="Path 6621" d="M431.924,793.612H455.7l-.167-.8H432.089Z" fill="none" stroke="#b8b294" stroke-width="0.418"/>
    <path id="Path_6622" data-name="Path 6622" d="M431.538,795.476h24.55l-.168-.8H431.7Z" fill="none" stroke="#b8b294" stroke-width="0.418"/>
    <path id="Path_6623" data-name="Path 6623" d="M431.15,797.348h25.324l-.167-.8H431.316Z" fill="none" stroke="#b8b294" stroke-width="0.418"/>
    <path id="Path_6624" data-name="Path 6624" d="M430.763,799.214h26.1l-.167-.8H430.929Z" fill="none" stroke="#b8b294" stroke-width="0.418"/>
    <path id="Path_6625" data-name="Path 6625" d="M430.376,801.082h26.872l-.167-.8H430.542Z" fill="none" stroke="#b8b294" stroke-width="0.418"/>
    <rect id="Rectangle_4609" data-name="Rectangle 4609" width="1.098" height="68.72" transform="translate(443.812 734.186)" fill="none" stroke="#b8b294" stroke-width="0.418"/>
    <rect id="Rectangle_4610" data-name="Rectangle 4610" width="1.098" height="68.72" transform="translate(445.88 734.186)" fill="none" stroke="#b8b294" stroke-width="0.418"/>
    <path id="Path_6626" data-name="Path 6626" d="M365.709,656.306H327.948V800.019h37.761Zm-4.089,6.054c-1.533,27.313-7.571,47.71-14.792,47.71s-13.258-20.4-14.792-47.71Z" fill="none" stroke="#b8b294" stroke-width="0.418"/>
    <path id="Path_6627" data-name="Path 6627" d="M346.828,703.046c-7.221,0-13.258-17.391-14.792-40.686,1.534,27.313,7.571,47.709,14.792,47.709s13.257-20.4,14.792-47.709c-1.535,23.293-7.571,40.686-14.792,40.686" fill="none" stroke="#b8b294" stroke-width="0.418"/>
    <path id="Path_6628" data-name="Path 6628" d="M378.341,737.84h2.128a4.449,4.449,0,0,0-2.128-1.237Z" fill="none" stroke="#b8b294" stroke-width="0.418"/>
    <path id="Path_6629" data-name="Path 6629" d="M378.341,713.323h3.652q-.224-.946-.441-1.849h-3.21Z" fill="none" stroke="#b8b294" stroke-width="0.418"/>
    <path id="Path_6630" data-name="Path 6630" d="M376.141,781.684H362.749q-.034.551-.068,1.1h13.461Z" fill="none" stroke="#b8b294" stroke-width="0.418"/>
    <path id="Path_6631" data-name="Path 6631" d="M378.341,709.989h2.843q-.235-.949-.464-1.849h-2.382Z" fill="none" stroke="#b8b294" stroke-width="0.418"/>
    <path id="Path_6632" data-name="Path 6632" d="M376.141,765.823H364.025q-.054.549-.106,1.1h12.222Z" fill="none" stroke="#b8b294" stroke-width="0.418"/>
    <path id="Path_6633" data-name="Path 6633" d="M376.142,763.174H364.291q-.057.549-.113,1.1h11.963Z" fill="none" stroke="#b8b294" stroke-width="0.418"/>
    <path id="Path_6634" data-name="Path 6634" d="M376.141,784.327H362.589c-.021.366-.042.734-.062,1.1h13.614Z" fill="none" stroke="#b8b294" stroke-width="0.418"/>
    <path id="Path_6635" data-name="Path 6635" d="M376.141,779.04H362.924q-.038.549-.075,1.1h13.3Z" fill="none" stroke="#b8b294" stroke-width="0.418"/>
    <path id="Path_6636" data-name="Path 6636" d="M376.141,773.752H363.319c-.029.366-.057.734-.083,1.1h12.909Z" fill="none" stroke="#b8b294" stroke-width="0.418"/>
    <path id="Path_6637" data-name="Path 6637" d="M378.341,706.654h2q-.25-.958-.489-1.849H378.34Z" fill="none" stroke="#b8b294" stroke-width="0.418"/>
    <path id="Path_6638" data-name="Path 6638" d="M374.013,737.84h2.128V736.6a4.443,4.443,0,0,0-2.128,1.238" fill="none" stroke="#b8b294" stroke-width="0.418"/>
    <path id="Path_6639" data-name="Path 6639" d="M376.141,768.465H363.774q-.049.549-.1,1.1h12.466Z" fill="none" stroke="#b8b294" stroke-width="0.418"/>
    <path id="Path_6640" data-name="Path 6640" d="M376.141,771.108h-12.6q-.048.549-.093,1.1h12.695Z" fill="none" stroke="#b8b294" stroke-width="0.418"/>
    <path id="Path_6641" data-name="Path 6641" d="M376.142,776.4H363.116q-.042.549-.084,1.1H376.14Z" fill="none" stroke="#b8b294" stroke-width="0.418"/>
    <path id="Path_6642" data-name="Path 6642" d="M376.142,739.382H367.4q-.084.547-.174,1.1h8.915Z" fill="none" stroke="#b8b294" stroke-width="0.418"/>
    <path id="Path_6643" data-name="Path 6643" d="M376.141,742.026h-9.154q-.082.547-.167,1.1h9.32Z" fill="none" stroke="#b8b294" stroke-width="0.418"/>
    <path id="Path_6644" data-name="Path 6644" d="M376.141,744.669h-9.548q-.084.547-.16,1.1h9.707Z" fill="none" stroke="#b8b294" stroke-width="0.418"/>
    <path id="Path_6645" data-name="Path 6645" d="M376.141,749.957H365.857q-.073.548-.146,1.1h10.433Z" fill="none" stroke="#b8b294" stroke-width="0.418"/>
    <path id="Path_6646" data-name="Path 6646" d="M376.141,747.313h-9.926q-.078.547-.152,1.1h10.078Z" fill="none" stroke="#b8b294" stroke-width="0.418"/>
    <path id="Path_6647" data-name="Path 6647" d="M376.141,711.474h-3.21q-.219.9-.442,1.849h3.652Z" fill="none" stroke="#b8b294" stroke-width="0.418"/>
    <path id="Path_6648" data-name="Path 6648" d="M376.141,704.806H374.63q-.24.891-.489,1.849h2Z" fill="none" stroke="#b8b294" stroke-width="0.418"/>
    <path id="Path_6649" data-name="Path 6649" d="M376.142,760.533H364.573c-.04.366-.08.734-.119,1.1h11.689Z" fill="none" stroke="#b8b294" stroke-width="0.418"/>
    <path id="Path_6650" data-name="Path 6650" d="M376.141,757.889H364.868q-.063.549-.126,1.1h11.4Z" fill="none" stroke="#b8b294" stroke-width="0.418"/>
    <path id="Path_6651" data-name="Path 6651" d="M376.141,755.245h-10.96q-.066.549-.133,1.1h11.093Z" fill="none" stroke="#b8b294" stroke-width="0.418"/>
    <path id="Path_6652" data-name="Path 6652" d="M378.341,751.059h10.433q-.072-.554-.146-1.1H378.344Z" fill="none" stroke="#b8b294" stroke-width="0.418"/>
    <path id="Path_6653" data-name="Path 6653" d="M376.141,708.14h-2.382q-.23.9-.464,1.849h2.843Z" fill="none" stroke="#b8b294" stroke-width="0.418"/>
    <path id="Path_6654" data-name="Path 6654" d="M378.341,780.142h13.294q-.036-.552-.074-1.1H378.344Z" fill="none" stroke="#b8b294" stroke-width="0.418"/>
    <path id="Path_6655" data-name="Path 6655" d="M378.341,740.484h8.915q-.083-.555-.174-1.1h-8.741Z" fill="none" stroke="#b8b294" stroke-width="0.418"/>
    <path id="Path_6656" data-name="Path 6656" d="M378.341,777.5h13.108c-.027-.368-.054-.736-.084-1.1H378.339Z" fill="none" stroke="#b8b294" stroke-width="0.418"/>
    <path id="Path_6657" data-name="Path 6657" d="M378.341,761.635h11.688c-.039-.368-.079-.736-.119-1.1H378.341Z" fill="none" stroke="#b8b294" stroke-width="0.418"/>
    <path id="Path_6658" data-name="Path 6658" d="M378.341,743.128h9.32q-.084-.555-.167-1.1H378.34Z" fill="none" stroke="#b8b294" stroke-width="0.418"/>
    <path id="Path_6659" data-name="Path 6659" d="M378.341,766.922h12.222c-.035-.368-.07-.736-.106-1.1H378.341Z" fill="none" stroke="#b8b294" stroke-width="0.418"/>
    <path id="Path_6660" data-name="Path 6660" d="M378.341,769.567h12.466q-.05-.554-.1-1.1H378.341Z" fill="none" stroke="#b8b294" stroke-width="0.418"/>
    <path id="Path_6661" data-name="Path 6661" d="M378.341,774.853H391.25q-.043-.554-.084-1.1H378.344Z" fill="none" stroke="#b8b294" stroke-width="0.418"/>
    <path id="Path_6662" data-name="Path 6662" d="M378.341,772.21h12.7c-.03-.368-.062-.736-.094-1.1h-12.6Z" fill="none" stroke="#b8b294" stroke-width="0.418"/>
    <path id="Path_6663" data-name="Path 6663" d="M378.341,764.278H390.3q-.055-.554-.113-1.1H378.34Z" fill="none" stroke="#b8b294" stroke-width="0.418"/>
    <path id="Path_6664" data-name="Path 6664" d="M378.341,753.7h10.771q-.07-.554-.139-1.1H378.341Z" fill="none" stroke="#b8b294" stroke-width="0.418"/>
    <path id="Path_6665" data-name="Path 6665" d="M378.341,756.347h11.093q-.066-.553-.133-1.1h-10.96Z" fill="none" stroke="#b8b294" stroke-width="0.418"/>
    <path id="Path_6666" data-name="Path 6666" d="M378.341,748.415h10.078q-.076-.553-.153-1.1h-9.927Z" fill="none" stroke="#b8b294" stroke-width="0.418"/>
    <path id="Path_6667" data-name="Path 6667" d="M376.141,786.972h-13.7l-.057,1.1h13.755Z" fill="none" stroke="#b8b294" stroke-width="0.418"/>
    <path id="Path_6668" data-name="Path 6668" d="M378.341,758.991h11.4q-.063-.554-.127-1.1H378.34Z" fill="none" stroke="#b8b294" stroke-width="0.418"/>
    <path id="Path_6669" data-name="Path 6669" d="M378.341,745.771h9.707q-.08-.555-.16-1.1H378.34Z" fill="none" stroke="#b8b294" stroke-width="0.418"/>
    <path id="Path_6670" data-name="Path 6670" d="M376.141,699.426c-.334,1.136-.707,2.437-1.107,3.894h1.107Z" fill="none" stroke="#b8b294" stroke-width="0.418"/>
    <path id="Path_6671" data-name="Path 6671" d="M378.341,699.426v3.894h1.108c-.4-1.458-.773-2.759-1.108-3.894" fill="none" stroke="#b8b294" stroke-width="0.418"/>
    <path id="Path_6672" data-name="Path 6672" d="M376.141,794.9H362.094c-.013.367-.026.733-.038,1.1h14.087Z" fill="none" stroke="#b8b294" stroke-width="0.418"/>
    <path id="Path_6673" data-name="Path 6673" d="M378.341,793.362h13.99l-.045-1.1H378.34Z" fill="none" stroke="#b8b294" stroke-width="0.418"/>
    <path id="Path_6674" data-name="Path 6674" d="M378.341,790.718H392.22c-.016-.368-.032-.736-.05-1.1H378.34Z" fill="none" stroke="#b8b294" stroke-width="0.418"/>
    <path id="Path_6675" data-name="Path 6675" d="M376.142,752.6H365.51q-.07.549-.139,1.1h10.771Z" fill="none" stroke="#b8b294" stroke-width="0.418"/>
    <path id="Path_6676" data-name="Path 6676" d="M378.341,796.005h14.087c-.013-.369-.026-.735-.039-1.1H378.343Z" fill="none" stroke="#b8b294" stroke-width="0.418"/>
    <path id="Path_6677" data-name="Path 6677" d="M378.341,785.429h13.614c-.02-.368-.041-.736-.062-1.1H378.34Z" fill="none" stroke="#b8b294" stroke-width="0.418"/>
    <path id="Path_6678" data-name="Path 6678" d="M378.341,782.786H391.8c-.023-.368-.045-.736-.068-1.1H378.342Z" fill="none" stroke="#b8b294" stroke-width="0.418"/>
    <path id="Path_6679" data-name="Path 6679" d="M376.141,789.616H362.315c-.017.366-.033.734-.05,1.1h13.879Z" fill="none" stroke="#b8b294" stroke-width="0.418"/>
    <path id="Path_6680" data-name="Path 6680" d="M378.341,788.074H392.1c-.018-.368-.037-.736-.056-1.1h-13.7Z" fill="none" stroke="#b8b294" stroke-width="0.418"/>
    <path id="Path_6681" data-name="Path 6681" d="M376.142,792.26H362.2c-.015.366-.03.734-.045,1.1h13.99Z" fill="none" stroke="#b8b294" stroke-width="0.418"/>
    <path id="Path_6682" data-name="Path 6682" d="M371.6,721.919a5.639,5.639,0,0,0,4.538,5.531V716.392a5.639,5.639,0,0,0-4.538,5.53" fill="none" stroke="#b8b294" stroke-width="0.418"/>
    <path id="Path_6683" data-name="Path 6683" d="M382.879,721.919a5.639,5.639,0,0,0-4.538-5.53v11.06a5.639,5.639,0,0,0,4.538-5.531" fill="none" stroke="#b8b294" stroke-width="0.418"/>
    <path id="Path_6684" data-name="Path 6684" d="M385.7,721.755a246.772,246.772,0,0,0-7.358-28.329v-8.645h-2.2v8.645a246.78,246.78,0,0,0-7.357,28.329c-.953,4.6-1.969,9.987-2.959,16.085h1.823q.25-1.52.5-2.98.554-3.238,1.106-6.173.652-3.48,1.284-6.521.814-3.93,1.608-7.358.174-.753.345-1.486.223-.947.443-1.849.183-.758.363-1.484.235-.951.465-1.849.193-.762.382-1.485.25-.959.489-1.849.205-.768.4-1.485c.4-1.457.772-2.759,1.107-3.893v3.893h2.2v-3.893c.334,1.136.706,2.436,1.107,3.893q.2.719.4,1.485.24.891.488,1.849.189.723.383,1.485.228.9.464,1.849.18.726.363,1.484.218.9.442,1.849.171.73.346,1.486.789,3.428,1.609,7.358.627,3.033,1.283,6.521.551,2.934,1.106,6.173.25,1.46.5,2.98h1.823c-.99-6.1-2.007-11.483-2.959-16.085" fill="none" stroke="#b8b294" stroke-width="0.418"/>
    <rect id="Rectangle_4611" data-name="Rectangle 4611" width="0.799" height="10.395" transform="translate(376.841 674.383)" fill="none" stroke="#b8b294" stroke-width="0.418"/>
    <path id="Path_6685" data-name="Path 6685" d="M394.276,797.548q-.023-.774-.049-1.542c-.012-.368-.025-.736-.039-1.1q-.028-.773-.058-1.542c-.014-.368-.028-.735-.044-1.1q-.031-.773-.066-1.541c-.016-.368-.032-.736-.05-1.1q-.036-.774-.074-1.542c-.019-.369-.038-.735-.056-1.1q-.041-.774-.084-1.542c-.021-.368-.041-.735-.063-1.1q-.043-.774-.091-1.542-.033-.552-.068-1.1-.049-.773-.1-1.541-.036-.552-.074-1.1-.053-.775-.109-1.542c-.026-.369-.053-.736-.083-1.1q-.057-.774-.117-1.542-.043-.552-.084-1.1-.062-.774-.126-1.542-.047-.552-.094-1.1-.066-.776-.134-1.542-.049-.553-.1-1.1-.07-.775-.144-1.542-.053-.552-.105-1.1-.075-.775-.153-1.542-.055-.554-.112-1.1-.084-.774-.162-1.542-.059-.552-.118-1.1-.084-.774-.167-1.541-.063-.554-.126-1.1c-.059-.518-.119-1.031-.18-1.542q-.064-.553-.132-1.1-.093-.775-.189-1.542-.068-.554-.138-1.1-.1-.776-.2-1.542-.072-.554-.144-1.1-.1-.776-.208-1.541-.075-.554-.151-1.1c-.072-.519-.145-1.031-.218-1.542q-.08-.555-.158-1.1c-.076-.518-.151-1.032-.228-1.542-.056-.369-.111-.737-.167-1.1-.079-.518-.157-1.031-.237-1.541q-.082-.556-.173-1.1-.123-.78-.251-1.542h-7.148a5.254,5.254,0,0,0-3.167-2.06v-.92h7.995q-.554-3.238-1.106-6.173h-6.889V714.812h4q-.174-.753-.346-1.485h-3.651v-1.849h3.21q-.183-.759-.364-1.486h-2.843v-1.848h2.382q-.193-.762-.382-1.485h-2V704.81h1.511c-.138-.512-.272-1-.4-1.485h-4.415q-.2.717-.4,1.485h1.511v1.849h-2q-.189.723-.382,1.485h2.382v1.848H373.3q-.18.727-.364,1.486h3.21v1.849h-3.652q-.171.729-.346,1.485h4v13.879h-6.89q-.551,2.933-1.106,6.173h8v.92a5.248,5.248,0,0,0-3.167,2.06h-7.149q-.125.764-.251,1.542-.084.546-.173,1.1-.118.762-.237,1.541c-.055.365-.111.733-.167,1.1q-.114.765-.227,1.542-.084.548-.159,1.1c-.073.51-.146,1.023-.218,1.542q-.076.547-.152,1.1c-.069.509-.139,1.023-.207,1.541q-.073.549-.145,1.1c-.066.511-.132,1.024-.2,1.542q-.069.549-.139,1.1-.094.766-.189,1.542-.066.549-.131,1.1-.09.767-.18,1.542-.061.547-.125,1.1-.084.766-.167,1.541-.06.549-.119,1.1-.084.768-.161,1.542c-.038.366-.076.734-.112,1.1q-.078.766-.153,1.542c-.035.366-.071.734-.106,1.1q-.074.768-.144,1.542-.049.549-.1,1.1-.067.767-.135,1.542-.047.549-.092,1.1-.064.768-.127,1.542l-.083,1.1q-.06.768-.117,1.542-.041.549-.084,1.1-.055.768-.109,1.542c-.025.365-.049.733-.073,1.1q-.051.767-.1,1.541c-.022.367-.045.735-.068,1.1q-.047.768-.091,1.542-.033.551-.063,1.1-.042.768-.084,1.542c-.019.367-.038.733-.056,1.1q-.039.768-.075,1.542c-.017.366-.034.733-.049,1.1q-.035.768-.066,1.541-.022.551-.044,1.1-.03.77-.058,1.542l-.039,1.1q-.025.768-.049,1.542h-3.255V802.2h40.582v-4.647Zm-1.849-1.542H378.34v-1.1h14.047c.013.367.025.733.039,1.1m-.1-2.644h-13.99v-1.106h13.945l.045,1.1m-.111-2.643H378.339v-1.1h13.83q.025.549.05,1.1m-.124-2.644H378.34v-1.1h13.7l.057,1.1m-.14-2.644H378.341v-1.1h13.551c.022.367.042.734.063,1.1m-.155-2.643H378.339v-1.1h13.392c.023.366.046.734.069,1.1m-.168-2.644H378.338v-1.1h13.217q.037.549.074,1.1m-.184-2.644H378.338v-1.1h13.026q.04.549.084,1.1m-.2-2.644H378.341v-1.1h12.821q.045.551.084,1.1m-.214-2.643h-12.7v-1.1h12.6c.031.366.063.733.093,1.1m-.229-2.644H378.336v-1.1H390.7q.051.549.1,1.1m-.244-2.644H378.338v-1.1h12.116c.036.366.072.734.107,1.1m-.26-2.644H378.338v-1.1h11.85q.057.549.113,1.1m-.275-2.644H378.338v-1.1h11.57q.059.549.118,1.1m-.29-2.644h-11.4v-1.1H389.61q.063.55.125,1.1m-.306-2.643H378.337v-1.1H389.3q.066.547.132,1.1m-.322-2.644h-10.77v-1.1h10.632q.069.549.138,1.1m-.334-2.644H378.34v-1.1h10.284q.074.547.146,1.1m-.355-2.644H378.338v-1.1h9.926q.076.547.152,1.1m-.371-2.644h-9.707v-1.1h9.548c.055.365.109.733.159,1.1m-.387-2.643h-9.32v-1.1h9.154q.084.548.167,1.1m-.578-3.746q.082.546.173,1.1h-8.915v-1.1Zm-6.614-1.542h-2.128V736.6a4.449,4.449,0,0,1,2.128,1.237M376.14,736.6v1.237h-2.128a4.454,4.454,0,0,1,2.128-1.237m-8.741,2.779h8.741v1.1h-8.914q.082-.555.173-1.1m-.412,2.644h9.154v1.1h-9.32q.084-.555.167-1.1m-.4,2.643h9.549v1.1h-9.707c.055-.37.109-.737.159-1.1m-.378,2.644h9.927v1.1H366.064q.075-.554.152-1.1m-.361,2.643h10.284v1.1H365.706q.072-.554.145-1.1m-.344,2.644h10.631v1.1H365.371q.07-.554.139-1.1m-.328,2.644h10.96v1.1H365.049q.066-.554.133-1.1m-.313,2.644h11.272v1.1h-11.4c.041-.369.083-.737.126-1.1m-.3,2.643h11.569v1.1h-11.69q.059-.552.119-1.1m-.281,2.644H376.14v1.1H364.177q.055-.554.113-1.1m-.265,2.644h12.116v1.1H363.919c.034-.368.07-.735.106-1.1m-.251,2.645H376.14v1.1H363.674q.049-.554.1-1.1m-.235,2.644h12.6v1.1H363.448q.047-.554.1-1.1m-.22,2.644h12.821v1.1H363.236q.044-.552.084-1.1m-.205,2.644h13.026v1.1H363.03q.039-.552.084-1.1m-.191,2.644H376.14v1.1H362.846c.025-.369.049-.736.075-1.1m-.175,2.643h13.391v1.1H362.676q.033-.554.068-1.1m-.16,2.643h13.552v1.1H362.529q.03-.552.062-1.1m-.145,2.644h13.7v1.1H362.389q.028-.554.057-1.1m-.132,2.644h13.83v1.1h-13.88c.017-.368.033-.736.051-1.1m-.121,2.638h13.945v1.1H362.15q.021-.552.044-1.1m-.1,2.644h14.047V796H362.052c.012-.369.025-.735.038-1.1" fill="none" stroke="#b8b294" stroke-width="0.418"/>
    <path id="Path_6686" data-name="Path 6686" d="M254.989,796.246l-.753-89.389-4.682-10.909s-12.6,18.494-16.174,40.95c-3.081,19.35-.852,50.975-.176,59.349Z" fill="none" stroke="#b8b294" stroke-width="0.418"/>
    <path id="Path_6687" data-name="Path 6687" d="M233.01,759.523c-.071,5.5.02,11.025.186,16.113l7.38-8.129Z" fill="none" stroke="#b8b294" stroke-width="0.418"/>
    <path id="Path_6688" data-name="Path 6688" d="M233.252,777.287c.228,6.271.561,11.773.824,15.57l6.667-7.345Z" fill="none" stroke="#b8b294" stroke-width="0.418"/>
    <path id="Path_6689" data-name="Path 6689" d="M248.713,794.263l-7.455-8.185-7.107,7.83c.009.122.018.238.026.355Z" fill="none" stroke="#b8b294" stroke-width="0.418"/>
    <path id="Path_6690" data-name="Path 6690" d="M234.177,740.194a166.333,166.333,0,0,0-1.126,17.047l8.026-8.846Z" fill="none" stroke="#b8b294" stroke-width="0.418"/>
    <path id="Path_6691" data-name="Path 6691" d="M238.345,722.26a96.578,96.578,0,0,0-3.762,15.1l7.786-8.578Z" fill="none" stroke="#b8b294" stroke-width="0.418"/>
    <path id="Path_6692" data-name="Path 6692" d="M248.881,739.317l-6.1-9.866-8.409,9.264q-.044.3-.083.6Z" fill="none" stroke="#b8b294" stroke-width="0.418"/>
    <path id="Path_6693" data-name="Path 6693" d="M241.088,766.945l7.9-8.706H233.03c0,.247-.008.495-.011.742l.294-.241Z" fill="none" stroke="#b8b294" stroke-width="0.418"/>
    <path id="Path_6694" data-name="Path 6694" d="M241.1,768.059l-7.274,8.011h14.862Z" fill="none" stroke="#b8b294" stroke-width="0.418"/>
    <path id="Path_6695" data-name="Path 6695" d="M254.988,796.246l-.711-87.839-4.441-10.72a115.681,115.681,0,0,0-11.084,23.376h11.657v.727h-.669l-6.416,7.069,6.461,10.46h.625v.727h-.725l-7.6,8.367,7.659,9.1h.661v.727h-.775l.223.175L241.61,767.5l8.124,8.573h.675v.727h-.725l-7.914,8.717,7.969,8.749h.669v.728H234.229c.035.463.067.884.1,1.254Z" fill="none" stroke="#b8b294" stroke-width="0.418"/>
    <path id="Path_6696" data-name="Path 6696" d="M233.828,757.509h14.926l-7.181-8.528Z" fill="none" stroke="#b8b294" stroke-width="0.418"/>
    <path id="Path_6697" data-name="Path 6697" d="M233.83,776.8l7.427,8.154,7.4-8.154Z" fill="none" stroke="#b8b294" stroke-width="0.418"/>
    <path id="Path_6698" data-name="Path 6698" d="M238.957,721.789l3.951,6.4,5.807-6.4Z" fill="none" stroke="#b8b294" stroke-width="0.418"/>
    <path id="Path_6699" data-name="Path 6699" d="M248.66,740.045H235.045l6.55,7.782Z" fill="none" stroke="#b8b294" stroke-width="0.418"/>
    <path id="Path_6700" data-name="Path 6700" d="M233.01,759.523c0-.181,0-.361.007-.542" fill="none" stroke="#b8b294" stroke-width="0.418"/>
    <path id="Path_6701" data-name="Path 6701" d="M250.409,794.263h-.668l-7.974-8.749,7.913-8.718h.725v-.728h-.674l-8.125-8.572,8.247-9.084-.224-.174h.775v-.728h-.66l-7.655-9.1,7.6-8.361h.724v-.727h-.624l-6.462-10.46,6.417-7.069h.669v-.728H238.753c-.138.4-.273.8-.408,1.2l4.026,6.521-7.786,8.578c-.031.19-.062.378-.092.569-.04.26-.078.523-.117.789l8.409-9.264,6.1,9.866H234.293q-.06.434-.116.876l6.9,8.2-8.026,8.846c-.008.334-.014.667-.02,1h15.961l-7.9,8.707-8.06-8.546-.009.585c0,.181,0,.361-.008.542l7.566,7.984-7.38,8.129q.027.837.057,1.653l7.491,8.225-6.668,7.345c.026.365.051.715.074,1.048l7.107-7.829,7.455,8.184H234.177c.019.251.037.5.054.728h16.178Zm-11.454-72.474h9.758l-5.807,6.4Zm-3.91,18.26H248.66l-7.061,7.776Zm-1.216,17.466,7.745-8.528,7.181,8.528Zm7.274,10.548,7.591,8.01H233.829Zm.157,16.889-7.427-8.154h14.83Z" fill="none" stroke="#b8b294" stroke-width="0.418"/>
    <path id="Path_6702" data-name="Path 6702" d="M258.922,796.245V701.164l-9.364-5.218v100.3Z" fill="none" stroke="#b8b294" stroke-width="0.418"/>
    <path id="Path_6703" data-name="Path 6703" d="M256.878,711.588c0,3.4-.991,6.154-2.213,6.154s-2.213-2.759-2.213-6.154.99-6.155,2.213-6.155,2.213,2.76,2.213,6.155" fill="none" stroke="#b8b294" stroke-width="0.418"/>
    <path id="Path_6704" data-name="Path 6704" d="M255.97,711.587c0,2.7-.788,4.89-1.756,4.89s-1.756-2.189-1.756-4.89.788-4.89,1.756-4.89,1.756,2.189,1.756,4.89" fill="none" stroke="#b8b294" stroke-width="0.418"/>
    <path id="Path_6705" data-name="Path 6705" d="M256.969,724.293l-4.69-1.5.251-.688,4.69,1.5Z" fill="none" stroke="#b8b294" stroke-width="0.418"/>
    <path id="Path_6706" data-name="Path 6706" d="M256.965,727.342l-4.682-1.434.245-.691,4.682,1.434Z" fill="none" stroke="#b8b294" stroke-width="0.418"/>
    <path id="Path_6707" data-name="Path 6707" d="M256.976,730.4l-4.7-1.377.236-.693,4.7,1.377Z" fill="none" stroke="#b8b294" stroke-width="0.418"/>
    <path id="Path_6708" data-name="Path 6708" d="M256.989,733.45l-4.7-1.315.227-.7,4.7,1.316Z" fill="none" stroke="#b8b294" stroke-width="0.418"/>
    <path id="Path_6709" data-name="Path 6709" d="M257,736.5l-4.707-1.258.216-.7,4.707,1.258Z" fill="none" stroke="#b8b294" stroke-width="0.418"/>
    <path id="Path_6710" data-name="Path 6710" d="M257.012,739.557l-4.718-1.2.206-.7,4.719,1.2Z" fill="none" stroke="#b8b294" stroke-width="0.418"/>
    <path id="Path_6711" data-name="Path 6711" d="M257.021,742.611l-4.73-1.145.2-.7,4.729,1.145Z" fill="none" stroke="#b8b294" stroke-width="0.418"/>
    <path id="Path_6712" data-name="Path 6712" d="M257.035,745.664l-4.742-1.087.188-.706,4.741,1.087Z" fill="none" stroke="#b8b294" stroke-width="0.418"/>
    <path id="Path_6713" data-name="Path 6713" d="M256.914,748.688l-4.62-1,.178-.708,4.62,1Z" fill="none" stroke="#b8b294" stroke-width="0.418"/>
    <path id="Path_6714" data-name="Path 6714" d="M256.925,751.743l-4.632-.946.167-.709,4.632.946Z" fill="none" stroke="#b8b294" stroke-width="0.418"/>
    <path id="Path_6715" data-name="Path 6715" d="M256.937,754.8l-4.643-.891.158-.713,4.643.891Z" fill="none" stroke="#b8b294" stroke-width="0.418"/>
    <path id="Path_6716" data-name="Path 6716" d="M256.948,757.857l-4.654-.836.148-.714,4.655.836Z" fill="none" stroke="#b8b294" stroke-width="0.418"/>
    <path id="Path_6717" data-name="Path 6717" d="M256.967,760.909l-4.618-.772.139-.715,4.618.771Z" fill="none" stroke="#b8b294" stroke-width="0.418"/>
    <path id="Path_6718" data-name="Path 6718" d="M256.979,763.964l-4.63-.717.129-.718,4.63.718Z" fill="none" stroke="#b8b294" stroke-width="0.418"/>
    <path id="Path_6719" data-name="Path 6719" d="M256.99,767.018l-4.64-.662.118-.718,4.641.662Z" fill="none" stroke="#b8b294" stroke-width="0.418"/>
    <path id="Path_6720" data-name="Path 6720" d="M257,770.073l-4.651-.607.108-.72,4.652.607Z" fill="none" stroke="#b8b294" stroke-width="0.418"/>
    <path id="Path_6721" data-name="Path 6721" d="M257.011,773.127l-4.662-.553.1-.721,4.662.552Z" fill="none" stroke="#b8b294" stroke-width="0.418"/>
    <path id="Path_6722" data-name="Path 6722" d="M257.023,776.185l-4.673-.5.089-.722,4.673.5Z" fill="none" stroke="#b8b294" stroke-width="0.418"/>
    <path id="Path_6723" data-name="Path 6723" d="M257.034,779.236l-4.682-.442.079-.723,4.682.442Z" fill="none" stroke="#b8b294" stroke-width="0.418"/>
    <path id="Path_6724" data-name="Path 6724" d="M257.046,782.291l-4.7-.387.07-.725,4.7.387Z" fill="none" stroke="#b8b294" stroke-width="0.418"/>
    <path id="Path_6725" data-name="Path 6725" d="M257.057,785.344l-4.706-.334.059-.725,4.706.334Z" fill="none" stroke="#b8b294" stroke-width="0.418"/>
    <path id="Path_6726" data-name="Path 6726" d="M257.074,788.4l-4.682-.276.049-.726,4.682.276Z" fill="none" stroke="#b8b294" stroke-width="0.418"/>
    <path id="Path_6727" data-name="Path 6727" d="M257.085,791.453l-4.7-.222.04-.726,4.694.221Z" fill="none" stroke="#b8b294" stroke-width="0.418"/>
    <path id="Path_6728" data-name="Path 6728" d="M257.1,794.507l-4.706-.167.031-.727,4.7.167Z" fill="none" stroke="#b8b294" stroke-width="0.418"/>
    <path id="Path_6729" data-name="Path 6729" d="M243.763,799.516q-14.052.245-28.1,0,1.273-24.306,2.785-48.6,11.268-.192,22.531,0,1.512,24.294,2.785,48.6" fill="none" stroke="#b8b294" stroke-width="0.418"/>
    <path id="Path_6730" data-name="Path 6730" d="M219.354,756.582q-.251,4.61-.5,9.221c-.018.349-.027.523-.046.873q-.219,4.174-.433,8.348c-.017.35-.027.525-.044.874q-.211,4.175-.418,8.349c-.018.349-.026.525-.043.873q-.225,4.611-.445,9.223,12.387.15,24.772,0-.222-4.613-.453-9.221c-.017-.35-.026-.523-.043-.873q-.211-4.173-.426-8.348l-.045-.872q-.218-4.173-.44-8.347c-.019-.35-.028-.524-.047-.873l-.5-9.22q-10.444-.12-20.89,0m9.448,5q-4.528,2.047-9.086,4.043.2-4,.4-8.005,4.338,1.995,8.69,3.962m-7.216-4.206q8.215-.064,16.429,0-4.1,1.889-8.213,3.752-4.116-1.862-8.216-3.753m16.7,9.289q-4.233,1.876-8.482,3.721-4.252-1.841-8.485-3.722,8.484-.028,16.967,0m-16.931-.875q4.233-1.857,8.444-3.757,4.215,1.9,8.449,3.757-8.445-.031-16.894,0m7.4,5.049q-4.731,2.032-9.488,4.013.19-4,.383-8.006,4.542,2.016,9.1,3.993m9.9,5.062q-4.416,1.895-8.854,3.744-4.441-1.845-8.857-3.743,8.856.008,17.711,0m-17.677-.875q4.425-1.839,8.82-3.736,4.4,1.9,8.821,3.736H220.989m7.729,5.063q-4.92,2.025-9.873,3.983.182-4,.37-8.008,4.742,2.034,9.5,4.025m10.307,5.04q-4.591,1.918-9.212,3.769-4.622-1.857-9.216-3.763,9.215.047,18.429,0m-18.394-.873q4.6-1.828,9.178-3.715,4.576,1.892,9.183,3.714-9.182.045-18.361,0m8.05,5.093q-5.106,2.018-10.247,3.951.176-4,.356-8.008,4.934,2.057,9.891,4.057m1.133.453q4.818,1.908,9.67,3.743-9.669.09-19.337,0,4.85-1.835,9.667-3.745m1.133-.453q4.958-2,9.886-4.058.183,4,.362,8.007-5.144-1.932-10.249-3.949m-.048-9.263q4.761-1.99,9.5-4.025.19,4,.377,8.006-4.954-1.956-9.876-3.981m-.048-9.259q4.557-1.98,9.1-3.992.2,4,.389,8.005-4.758-1.978-9.489-4.014m-.049-9.256q4.349-1.965,8.686-3.961.2,4,.4,8-4.556-2-9.089-4.044" fill="none" stroke="#b8b294" stroke-width="0.418"/>
    <rect id="Rectangle_4612" data-name="Rectangle 4612" width="30.21" height="10.534" transform="translate(236.379 790.325)" fill="none" stroke="#b8b294" stroke-width="0.418"/>
    <rect id="Rectangle_4613" data-name="Rectangle 4613" width="33.276" height="60.774" transform="translate(312.478 741.42)" fill="none" stroke="#b8b294" stroke-width="0.418"/>
    <rect id="Rectangle_4614" data-name="Rectangle 4614" width="26.567" height="10.39" transform="translate(315.699 744.669)" fill="none" stroke="#b8b294" stroke-width="0.418"/>
    <rect id="Rectangle_4615" data-name="Rectangle 4615" width="26.567" height="31.341" transform="translate(315.699 759.162)" fill="none" stroke="#b8b294" stroke-width="0.418"/>
    <rect id="Rectangle_4616" data-name="Rectangle 4616" width="26.567" height="1.921" transform="translate(315.699 761.437)" fill="none" stroke="#b8b294" stroke-width="0.418"/>
    <rect id="Rectangle_4617" data-name="Rectangle 4617" width="26.567" height="1.921" transform="translate(315.699 764.982)" fill="none" stroke="#b8b294" stroke-width="0.418"/>
    <rect id="Rectangle_4618" data-name="Rectangle 4618" width="26.567" height="1.921" transform="translate(315.699 768.527)" fill="none" stroke="#b8b294" stroke-width="0.418"/>
    <rect id="Rectangle_4619" data-name="Rectangle 4619" width="26.567" height="1.921" transform="translate(315.699 772.071)" fill="none" stroke="#b8b294" stroke-width="0.418"/>
    <rect id="Rectangle_4620" data-name="Rectangle 4620" width="26.567" height="1.921" transform="translate(315.699 775.615)" fill="none" stroke="#b8b294" stroke-width="0.418"/>
    <rect id="Rectangle_4621" data-name="Rectangle 4621" width="26.567" height="1.921" transform="translate(315.699 779.159)" fill="none" stroke="#b8b294" stroke-width="0.418"/>
    <rect id="Rectangle_4622" data-name="Rectangle 4622" width="26.567" height="1.921" transform="translate(315.699 782.704)" fill="none" stroke="#b8b294" stroke-width="0.418"/>
    <rect id="Rectangle_4623" data-name="Rectangle 4623" width="26.567" height="1.921" transform="translate(315.699 786.249)" fill="none" stroke="#b8b294" stroke-width="0.418"/>
    <path id="Path_6731" data-name="Path 6731" d="M437.186,781.189c0,3.5-8.449,6.334-18.872,6.334s-18.871-2.836-18.871-6.334,8.445-6.334,18.871-6.334,18.872,2.836,18.872,6.334" fill="none" stroke="#b8b294" stroke-width="0.418"/>
    <rect id="Rectangle_4624" data-name="Rectangle 4624" width="61.978" height="21.183" transform="translate(387.326 779.939)" fill="none" stroke="#b8b294" stroke-width="0.418"/>
    <rect id="Rectangle_4625" data-name="Rectangle 4625" width="20.341" height="2.188" transform="translate(391.604 784.327)" fill="none" stroke="#b8b294" stroke-width="0.418"/>
    <rect id="Rectangle_4626" data-name="Rectangle 4626" width="20.341" height="2.188" transform="translate(391.604 787.636)" fill="none" stroke="#b8b294" stroke-width="0.418"/>
    <rect id="Rectangle_4627" data-name="Rectangle 4627" width="20.341" height="2.188" transform="translate(391.604 790.943)" fill="none" stroke="#b8b294" stroke-width="0.418"/>
    <rect id="Rectangle_4628" data-name="Rectangle 4628" width="20.341" height="2.188" transform="translate(391.604 794.252)" fill="none" stroke="#b8b294" stroke-width="0.418"/>
    <rect id="Rectangle_4629" data-name="Rectangle 4629" width="20.341" height="2.188" transform="translate(391.604 797.56)" fill="none" stroke="#b8b294" stroke-width="0.418"/>
    <rect id="Rectangle_4630" data-name="Rectangle 4630" width="20.341" height="2.188" transform="translate(424.684 784.327)" fill="none" stroke="#b8b294" stroke-width="0.418"/>
    <rect id="Rectangle_4631" data-name="Rectangle 4631" width="20.341" height="2.188" transform="translate(424.684 787.636)" fill="none" stroke="#b8b294" stroke-width="0.418"/>
    <rect id="Rectangle_4632" data-name="Rectangle 4632" width="20.341" height="2.188" transform="translate(424.684 790.943)" fill="none" stroke="#b8b294" stroke-width="0.418"/>
    <rect id="Rectangle_4633" data-name="Rectangle 4633" width="20.341" height="2.188" transform="translate(424.684 794.252)" fill="none" stroke="#b8b294" stroke-width="0.418"/>
    <rect id="Rectangle_4634" data-name="Rectangle 4634" width="20.341" height="2.188" transform="translate(424.684 797.56)" fill="none" stroke="#b8b294" stroke-width="0.418"/>
    <rect id="Rectangle_4635" data-name="Rectangle 4635" width="10.684" height="24.697" transform="translate(412.973 777.498)" fill="none" stroke="#b8b294" stroke-width="0.418"/>
    <path id="Path_6732" data-name="Path 6732" d="M306.12,748.328a8.759,8.759,0,1,1-8.759-8.759,8.76,8.76,0,0,1,8.759,8.759" fill="none" stroke="#b8b294" stroke-width="0.418"/>
    <rect id="Rectangle_4636" data-name="Rectangle 4636" width="21.658" height="55.287" transform="translate(286.296 747.36)" fill="none" stroke="#b8b294" stroke-width="0.418"/>
    <rect id="Rectangle_4637" data-name="Rectangle 4637" width="24.666" height="50.917" transform="translate(278.475 751.73)" fill="none" stroke="#b8b294" stroke-width="0.418"/>
    <rect id="Rectangle_4638" data-name="Rectangle 4638" width="2.551" height="50.917" transform="translate(295.291 751.73)" fill="none" stroke="#b8b294" stroke-width="0.418"/>
    <rect id="Rectangle_4639" data-name="Rectangle 4639" width="61.854" height="9.705" transform="translate(270.261 797.547)" fill="none" stroke="#b8b294" stroke-width="0.418"/>
    <rect id="Rectangle_4640" data-name="Rectangle 4640" width="6.163" height="10.476" transform="translate(348.395 792.11)" fill="none" stroke="#b8b294" stroke-width="0.418"/>
    <rect id="Rectangle_4641" data-name="Rectangle 4641" width="9.383" height="1.868" transform="translate(465.077 748.694)" fill="none" stroke="#b8b294" stroke-width="0.418"/>
    <rect id="Rectangle_4642" data-name="Rectangle 4642" width="10.836" height="1.868" transform="translate(464.351 749.758)" fill="none" stroke="#b8b294" stroke-width="0.418"/>
    <rect id="Rectangle_4643" data-name="Rectangle 4643" width="10.076" height="47.75" transform="translate(464.73 750.561)" fill="none" stroke="#b8b294" stroke-width="0.418"/>
    <rect id="Rectangle_4644" data-name="Rectangle 4644" width="7.929" height="8.974" transform="translate(465.804 740.783)" fill="none" stroke="#b8b294" stroke-width="0.418"/>
    <path id="Path_6733" data-name="Path 6733" d="M473.733,740.783v-1.035c0-2.7-1.775-4.885-3.964-4.885s-3.964,2.187-3.964,4.885v1.035Z" fill="none" stroke="#b8b294" stroke-width="0.418"/>
    <rect id="Rectangle_4645" data-name="Rectangle 4645" width="1.321" height="4.449" transform="translate(469.107 731.164)" fill="none" stroke="#b8b294" stroke-width="0.418"/>
    <rect id="Rectangle_4646" data-name="Rectangle 4646" width="0.661" height="2.775" transform="translate(469.438 728.389)" fill="none" stroke="#b8b294" stroke-width="0.418"/>
    <rect id="Rectangle_4647" data-name="Rectangle 4647" width="9.383" height="1.708" transform="translate(465.077 739.753)" fill="none" stroke="#b8b294" stroke-width="0.418"/>
    <rect id="Rectangle_4648" data-name="Rectangle 4648" width="0.925" height="5.201" transform="translate(467.548 742.689)" fill="none" stroke="#b8b294" stroke-width="0.418"/>
    <rect id="Rectangle_4649" data-name="Rectangle 4649" width="0.925" height="5.201" transform="translate(469.41 742.689)" fill="none" stroke="#b8b294" stroke-width="0.418"/>
    <rect id="Rectangle_4650" data-name="Rectangle 4650" width="0.925" height="5.201" transform="translate(471.065 742.689)" fill="none" stroke="#b8b294" stroke-width="0.418"/>
    <rect id="Rectangle_4651" data-name="Rectangle 4651" width="1.459" height="46.279" transform="translate(467.074 753.493)" fill="none" stroke="#b8b294" stroke-width="0.418"/>
    <rect id="Rectangle_4652" data-name="Rectangle 4652" width="1.459" height="46.279" transform="translate(471.003 753.493)" fill="none" stroke="#b8b294" stroke-width="0.418"/>
    <rect id="Rectangle_4653" data-name="Rectangle 4653" width="14.139" height="4.76" transform="translate(462.699 796.444)" fill="none" stroke="#b8b294" stroke-width="0.418"/>
    <rect id="Rectangle_4654" data-name="Rectangle 4654" width="7.678" height="4.345" transform="translate(255.97 802.906)" fill="none" stroke="#b8b294" stroke-width="0.418"/>
    <rect id="Rectangle_4655" data-name="Rectangle 4655" width="6.653" height="8.074" transform="translate(275.631 802.906)" fill="none" stroke="#b8b294" stroke-width="0.418"/>
    <rect id="Rectangle_4656" data-name="Rectangle 4656" width="21.262" height="7.061" transform="translate(361.932 800.191)" fill="none" stroke="#b8b294" stroke-width="0.418"/>
    <path id="Path_6734" data-name="Path 6734" d="M209.081,796.341h-9.239a.1.1,0,0,1-.1-.1h0V783.665a.1.1,0,0,1,.1-.1h9.241a.1.1,0,0,1,.1.1v12.574a.1.1,0,0,1-.1.1h0m-9.136-.206h9.03V783.768h-9.03Z" fill="none" stroke="#b8b294" stroke-width="0.418"/>
    <path id="Path_6735" data-name="Path 6735" d="M199.844,808.772h-31.41a.1.1,0,0,1-.1-.1v-11.32a.1.1,0,0,1,.1-.1h7.336v-6.527a.1.1,0,0,1,.1-.1h3.373a.1.1,0,0,1,.1.1v6.527H186.1v-9.074a.1.1,0,0,1,.1-.1h7.956a.1.1,0,0,1,.1.1v9.077h5.581a.1.1,0,0,1,.1.1h0v11.323a.1.1,0,0,1-.1.1m-31.3-.207h31.2V797.451h-5.582a.1.1,0,0,1-.1-.1h0v-9.077H186.3v9.074a.1.1,0,0,1-.1.1H179.24a.1.1,0,0,1-.1-.1v-6.526h-3.166v6.527a.1.1,0,0,1-.1.1h-7.335Z" fill="none" stroke="#b8b294" stroke-width="0.418"/>
    <path id="Path_6736" data-name="Path 6736" d="M478.027,819.342h-36.7L382.6,807.358H361.932a.1.1,0,0,1-.1-.1h0V802.3h-4.877a.1.1,0,0,1-.1-.1h0v-2.073h-2.188v2.463a.1.1,0,0,1-.1.1h-6.165a.1.1,0,0,1-.1-.1v-2.465h-2.434V802.2a.1.1,0,0,1-.1.1h-1.626a.1.1,0,0,1,.084.1v6.717a.1.1,0,0,1-.1.1H301.184a.1.1,0,0,1-.1-.1v-1.762H282.387v3.52h2.174a.1.1,0,0,1,.1.1v8.257a.1.1,0,0,1-.1.1H219.949a.1.1,0,0,1-.1-.1v-8.256a.1.1,0,0,1,.1-.1h55.579v-3.522H270.26a.1.1,0,0,1-.1-.1v-7.731h-3.466v1.338a.1.1,0,0,1-.1.1H236.379a.1.1,0,0,1-.1-.1v-1.146c-6.856.055-13.795.024-20.614-.094a.1.1,0,0,1-.1-.106v0l.084-1.626.066-1.238h-4.3a.1.1,0,0,1-.1-.1h0v-7.47a.1.1,0,0,1,.1-.1h4.713c.7-12.824,1.445-25.628,2.22-38.061a.1.1,0,0,1,.1-.1c4.462-.076,9.009-.107,13.515-.091a129.647,129.647,0,0,1,1.32-13.84c3.538-22.22,16.065-40.807,16.191-40.992a.1.1,0,0,1,.135-.032l9.365,5.218a.1.1,0,0,1,.052.09v83.742h4.515V759.762a.1.1,0,0,1,.1-.1h.851v-1.77a.1.1,0,0,1,.1-.1h1.4V755.8a.1.1,0,0,1,.1-.1h.526a2.116,2.116,0,0,1-.1-.636,3.168,3.168,0,0,1,6.218,0,2.116,2.116,0,0,1-.1.636h.524a.1.1,0,0,1,.1.1v1.991h1.409a.1.1,0,0,1,.1.1h0v1.77h.851a.1.1,0,0,1,.1.1v21.822h2.637V751.736a.1.1,0,0,1,.1-.1H286.2v-4.264a.1.1,0,0,1,.1-.1h2.27a8.863,8.863,0,0,1,17.594,0h1.794a.1.1,0,0,1,.1.1v41.6h4.317V741.421a.1.1,0,0,1,.1-.1h15.365v-85.01a.1.1,0,0,1,.1-.1h37.763a.1.1,0,0,1,.1.1v80.977c.875-5.338,1.84-10.567,2.872-15.551a247.854,247.854,0,0,1,7.357-28.325v-8.629a.1.1,0,0,1,.1-.1h.6V674.383a.1.1,0,0,1,.1-.1h.8a.1.1,0,0,1,.1.1v10.294h.6a.1.1,0,0,1,.1.1v8.631a247.747,247.747,0,0,1,7.357,28.325c1.067,5.15,2.062,10.563,2.959,16.089.084.509.168,1.022.251,1.542q.084.547.173,1.1.119.763.237,1.542.084.547.167,1.1.114.764.228,1.542.08.547.158,1.1.111.765.219,1.542c.05.361.1.724.15,1.087.071.522.141,1.037.209,1.554q.073.549.146,1.1.1.765.2,1.542c.038.3.075.6.113.9h2.592v-6.563a.1.1,0,0,1,.1-.1h3.838a.1.1,0,0,1,.1.1v6.563h1.807a.1.1,0,0,1,.1.1h0v26.244h.207a5.767,5.767,0,0,1,1.917-1.756V761.062a.1.1,0,0,1,.1-.1h10.17a.1.1,0,0,1,.1.1v14.047a53.766,53.766,0,0,1,6.266-.358,51.629,51.629,0,0,1,8.743.718V750.292a.1.1,0,0,1,.1-.1h3.112v-8.629a.1.1,0,0,1,.1-.1h3.38v-1.969a.1.1,0,0,1,.073-.1l8.056-2.5V732.48a.1.1,0,0,1,.1-.1h4.99a.1.1,0,0,1,.1.1v4.28l1.863,2.117h8.3a.1.1,0,0,1,.1.1v48.315h2.9V779.16a.1.1,0,0,1,.1-.1h4.27V751.729h-.277a.1.1,0,0,1-.1-.1v-1.866a.1.1,0,0,1,.1-.1h.623V748.7a.1.1,0,0,1,.1-.1h.623v-7.023h-.623a.1.1,0,0,1-.1-.1v-1.708a.1.1,0,0,1,.1-.1h.624c.04-2.369,1.412-4.361,3.3-4.8v-3.689a.1.1,0,0,1,.1-.1h.228v-2.675a.1.1,0,0,1,.1-.1h.66a.1.1,0,0,1,.1.1h0v2.675h.228a.1.1,0,0,1,.1.1v3.686a4.792,4.792,0,0,1,3.3,4.8h.624a.1.1,0,0,1,.1.1v1.709a.1.1,0,0,1-.1.1h-.635v7.023h.623a.1.1,0,0,1,.1.1v.96h.623a.1.1,0,0,1,.1.1v1.87a.1.1,0,0,1-.1.1h-.277v27.328h9.261a.1.1,0,0,1,.1.1h0v8.133h4.436a.1.1,0,0,1,.1.1v5.31h2.692V778.27a.1.1,0,0,1,.1-.1h4.237v-5.039a.1.1,0,0,1,.1-.1h1.063a.1.1,0,0,1,.1.1v5.04h3.177a.1.1,0,0,1,.1.1v14.436H516a.1.1,0,0,1,.1.1V802.4a.1.1,0,0,1-.1.1H488.814v2.579a.1.1,0,0,1-.1.1H460.462v10.208a.1.1,0,0,1-.1.1h-3.895l21.581,3.641a.1.1,0,0,1-.017.205m-36.669-.207h35.436l-21.582-3.641a.1.1,0,0,1-.079-.123.1.1,0,0,1,.1-.082h5.025V805.081a.1.1,0,0,1,.1-.1h28.25V802.4a.1.1,0,0,1,.1-.1h27.18v-9.381h-15.6a.1.1,0,0,1-.1-.1V778.375h-3.178a.1.1,0,0,1-.1-.1h0v-5.04h-.855v5.039a.1.1,0,0,1-.1.1H491.71V792.81a.1.1,0,0,1-.1.1h-2.9a.1.1,0,0,1-.1-.1V787.5h-4.437a.1.1,0,0,1-.1-.1v-8.136h-9.258a.1.1,0,0,1-.1-.1V751.626a.1.1,0,0,1,.1-.1h.277v-1.661h-.623a.1.1,0,0,1-.1-.1h0V748.8h-.623a.1.1,0,0,1-.1-.1v-7.233a.1.1,0,0,1,.1-.1h.623v-1.505h-.623a.1.1,0,0,1-.1-.1c0-2.351-1.355-4.333-3.222-4.719a.1.1,0,0,1-.083-.1v-3.665H470.1a.1.1,0,0,1-.1-.1v-2.675h-.454v2.675a.1.1,0,0,1-.1.1h-.227v3.665a.1.1,0,0,1-.083.1c-1.866.386-3.222,2.368-3.222,4.714a.108.108,0,0,1-.1.108h-.624v1.505h.624a.1.1,0,0,1,.1.1v7.235a.1.1,0,0,1-.1.1h-.625v.962a.1.1,0,0,1-.1.1h-.625v1.661h.277a.1.1,0,0,1,.1.1v27.534a.1.1,0,0,1-.1.1h-4.265V787.4a.1.1,0,0,1-.1.1h-3.111a.1.1,0,0,1-.1-.1V739.083H448.9a.105.105,0,0,1-.078-.035l-1.923-2.182a.1.1,0,0,1-.026-.068v-4.213H442.09v4.382a.1.1,0,0,1-.073.1l-8.057,2.5v2a.1.1,0,0,1-.1.1h-3.379v8.629a.1.1,0,0,1-.1.1h-3.111v25.2a.106.106,0,0,1-.037.079.111.111,0,0,1-.084.023,51.111,51.111,0,0,0-8.828-.737,53.333,53.333,0,0,0-6.355.37.1.1,0,0,1-.083-.025.1.1,0,0,1-.035-.077V761.165h-9.966v16.973a.1.1,0,0,1-.049.089,5.526,5.526,0,0,0-1.928,1.766.108.108,0,0,1-.089.051h-.368a.1.1,0,0,1-.1-.1V753.7h-1.808a.1.1,0,0,1-.1-.1h0v-6.563H393.8v6.563a.1.1,0,0,1-.1.1H390.91a.1.1,0,0,1-.1-.09q-.062-.5-.125-.991-.1-.774-.2-1.541c-.047-.369-.1-.736-.144-1.1q-.1-.776-.208-1.541c-.051-.377-.1-.741-.152-1.1-.072-.519-.144-1.031-.217-1.542q-.08-.555-.159-1.1-.113-.777-.227-1.542-.083-.554-.167-1.1-.118-.777-.237-1.541-.082-.555-.173-1.1-.123-.778-.25-1.541c-.9-5.524-1.892-10.933-2.958-16.081a247.186,247.186,0,0,0-7.357-28.316.092.092,0,0,1-.006-.033v-8.545h-.6a.1.1,0,0,1-.1-.1V674.485h-.593v10.292a.1.1,0,0,1-.1.1h-.6v8.545a.176.176,0,0,1-.006.033,247.184,247.184,0,0,0-7.358,28.316c-1.065,5.147-2.061,10.557-2.957,16.081l-.117.73a.1.1,0,0,1-.121.084.1.1,0,0,1-.085-.1V656.41H328.051v85.011a.1.1,0,0,1-.1.1H312.582v47.55a.1.1,0,0,1-.1.1h-4.521a.1.1,0,0,1-.1-.1v-41.61h-1.785a.1.1,0,0,1-.1-.092,8.655,8.655,0,0,0-17.2,0,.1.1,0,0,1-.1.092H286.4v4.264a.1.1,0,0,1-.1.1h-7.719v29.849a.1.1,0,0,1-.1.1h-2.843a.1.1,0,0,1-.1-.1h0V759.858h-.849a.1.1,0,0,1-.1-.1v-1.77h-1.4a.1.1,0,0,1-.1-.1v-1.989h-.565a.1.1,0,0,1-.1-.105.115.115,0,0,1,.007-.036,1.957,1.957,0,0,0,.133-.7,2.966,2.966,0,0,0-5.8,0,1.915,1.915,0,0,0,.133.7.1.1,0,0,1-.061.134.106.106,0,0,1-.036.007h-.566v1.989a.1.1,0,0,1-.1.1h-1.4v1.77a.1.1,0,0,1-.1.1h-.853v25.147a.1.1,0,0,1-.1.1h-4.727a.1.1,0,0,1-.1-.1V701.226l-9.227-5.145c-.892,1.338-12.692,19.391-16.106,40.83a130.045,130.045,0,0,0-1.322,13.917.1.1,0,0,1-.1.1c-4.505-.016-9.052.014-13.515.09-.774,12.433-1.521,25.239-2.219,38.062a.1.1,0,0,1-.1.1h-4.705v7.264h4.3a.1.1,0,0,1,.1.1v.006l-.072,1.347q-.04.761-.083,1.52c6.82.117,13.751.148,20.606.092a.166.166,0,0,1,.074.03.105.105,0,0,1,.031.073v1.147h30.009v-1.338a.1.1,0,0,1,.1-.1h3.675a.1.1,0,0,1,.1.1v7.728h5.267a.1.1,0,0,1,.1.1v3.729a.1.1,0,0,1-.1.1H220.052v8.05h64.41v-8.05h-2.173a.1.1,0,0,1-.1-.1V807.25a.1.1,0,0,1,.1-.1h18.895a.1.1,0,0,1,.1.1v1.761h42.717V802.5h-11.89a.1.1,0,0,1-.1-.1h0v-.2a.1.1,0,0,1,.1-.1h13.538v-2.072a.1.1,0,0,1,.1-.1H348.4a.1.1,0,0,1,.1.1v2.463h5.956v-2.463a.1.1,0,0,1,.1-.1h2.391a.1.1,0,0,1,.1.1v2.072h4.878a.1.1,0,0,1,.1.1v4.956h20.6Zm-2.681-6.433h-.017l-51.83-8.744-3.625.357a.1.1,0,0,1-.118-.1V802.2a.1.1,0,0,1,.1-.1h14.239v-.969a.1.1,0,0,1,.1-.1h15.44a.1.1,0,0,1,.1.1v.969h5.238a.1.1,0,0,1,.1.1v6.37h16.5v-5.658a.1.1,0,0,1,.1-.1h3.656a.1.1,0,0,1,.1.1V812.6a.1.1,0,0,1-.1.1m-51.844-8.954h.018l51.723,8.726V803.01h-3.445v5.658a.1.1,0,0,1-.1.1h-16.71a.1.1,0,0,1-.1-.1V802.3h-5.239a.1.1,0,0,1-.1-.1v-.969H397.634v.969a.1.1,0,0,1-.1.1H383.3v1.8l3.526-.347h.01m40.328-2.341h-3.505a.1.1,0,0,1-.1-.1v-.181a.1.1,0,0,1,.1-.1h3.505a.1.1,0,0,1,.1.1v.181a.1.1,0,0,1-.1.1m-114.682-3.757h-4.522a.1.1,0,0,1-.1-.1h0v-.6a.1.1,0,0,1,.1-.1h4.525a.1.1,0,0,1,.1.1v.6a.1.1,0,0,1-.1.1h0m-4.421-.206h4.317v-.4h-4.32Zm78.776-59.5H381.51a.1.1,0,0,1-.084-.043,5.148,5.148,0,0,0-3.1-2.02.1.1,0,0,1-.084-.1v-.919a.1.1,0,0,1,.1-.1h8a.1.1,0,0,1,.1.083q.251,1.461.5,2.981a.1.1,0,0,1-.084.118l-.018,0m-5.273-.207h5.152q-.231-1.413-.463-2.773H378.44v.733a5.348,5.348,0,0,1,3.116,2.04m-8.585.207h-5.326a.1.1,0,0,1-.1-.1l0-.016q.25-1.521.5-2.98a.1.1,0,0,1,.1-.084h8a.1.1,0,0,1,.1.1v.919a.1.1,0,0,1-.084.1,5.151,5.151,0,0,0-3.105,2.02.1.1,0,0,1-.084.043m-5.2-.206h5.154a5.351,5.351,0,0,1,3.116-2.041v-.737h-7.8q-.232,1.36-.463,2.773m17.46-8.946h-6.889a.1.1,0,0,1-.1-.1h0v-1.234a.1.1,0,0,1,.084-.1,5.535,5.535,0,0,0,0-10.858.1.1,0,0,1-.084-.1V714.81a.1.1,0,0,1,.1-.1h4a.106.106,0,0,1,.1.084c.552,2.4,1.093,4.874,1.608,7.358.438,2.117.871,4.311,1.285,6.521a.105.105,0,0,1-.022.084.108.108,0,0,1-.084.037m-6.786-.207H385.1c-.408-2.166-.832-4.318-1.261-6.394-.509-2.458-1.043-4.906-1.589-7.274H378.44v1.4a5.741,5.741,0,0,1,0,11.228Zm-2.3.207h-6.89a.1.1,0,0,1-.1-.1l0-.019c.418-2.21.846-4.4,1.284-6.522.515-2.487,1.056-4.964,1.608-7.358a.1.1,0,0,1,.1-.083h4a.1.1,0,0,1,.1.1v1.585a.1.1,0,0,1-.084.1,5.535,5.535,0,0,0,0,10.858.1.1,0,0,1,.084.1v1.236a.1.1,0,0,1-.1.1h0m-6.765-.207h6.662V727.54a5.742,5.742,0,0,1,0-11.229v-1.4h-3.812c-.546,2.372-1.08,4.82-1.588,7.275l-.1-.021.1.021c-.43,2.076-.854,4.228-1.261,6.394M346.825,703.15c-3.558,0-6.886-4.038-9.626-11.677-2.649-7.385-4.52-17.722-5.268-29.106a.1.1,0,0,1,.028-.078.105.105,0,0,1,.075-.032h29.584a.1.1,0,0,1,.1.1v.007c-.753,11.385-2.622,21.722-5.268,29.106-2.74,7.638-6.068,11.677-9.625,11.677m-14.682-40.686c.753,11.323,2.617,21.6,5.251,28.94,2.669,7.441,6.02,11.538,9.431,11.538s6.762-4.1,9.43-11.538c2.634-7.343,4.5-17.617,5.25-28.94Z" fill="#b8b294" stroke="#b8b294" stroke-width="0.418"/>
    <path id="Path_6737" data-name="Path 6737" d="M356.949,808.772h-5.473a.1.1,0,0,1-.1-.1v-3.59a.1.1,0,0,1,.1-.1h5.473a.1.1,0,0,1,.1.1v3.586a.1.1,0,0,1-.1.1m-5.369-.206h5.267v-3.382H351.58Z" fill="none" stroke="#b8b294" stroke-width="0.418"/>
    <path id="Path_6738" data-name="Path 6738" d="M263.648,807.355H255.97a.1.1,0,0,1-.1-.1h0V802.9a.1.1,0,0,1,.1-.1h7.68a.1.1,0,0,1,.1.1v4.35a.1.1,0,0,1-.1.1m-7.575-.206h7.471V803.01h-7.471Z" fill="none" stroke="#b8b294" stroke-width="0.418"/>
    <rect id="Rectangle_4657" data-name="Rectangle 4657" width="426.329" height="106.276" transform="translate(126.738 798.825)" fill="none" stroke="#b8b294" stroke-width="0.418"/>
    <path id="Path_6739" data-name="Path 6739" d="M611.247,798.473H76.977a.374.374,0,0,1-.035-.747H611.247a.374.374,0,1,1,.035.747h-.035" fill="none" stroke="#b8b294" stroke-width="0.418"/>
  </g>
</svg>
